<svg xmlns="http://www.w3.org/2000/svg" width="1639" height="506" fill="none"><path fill="#fff" fill-rule="evenodd" d="M600.538 119.026c79.835 0 128.068 60.896 128.068 143.384 0 84.148-54.332 144.491-131.394 144.491-35.481 0-62.093-12.179-74.844-27.68v126.776h-84.269V125.669h81.496v28.233c11.643-17.715 41.581-34.876 80.943-34.876m-17.186 75.844c-32.71 0-62.093 22.144-62.093 68.093 0 45.396 29.383 68.647 62.093 68.647 33.264 0 62.649-22.697 62.649-68.647 0-45.949-29.385-68.093-62.649-68.093m421.408-77.505c82.6 0 146.36 60.343 146.36 145.598s-63.76 146.152-146.36 146.152c-82.054 0-146.366-60.896-146.366-146.152s64.312-145.598 146.366-145.598m0 77.505c-31.604 0-62.096 21.59-62.096 68.093 0 45.95 30.493 68.647 62.096 68.647 32.15 0 62.09-22.144 62.09-68.647s-29.94-68.093-62.09-68.093m495.44-77.505c85.38 0 138.05 52.592 138.05 141.169 0 11.626-1.11 24.36-1.67 26.02h-191.82c1.66 31.002 29.94 53.146 62.65 53.146 30.49 0 47.68-14.394 55.44-35.985l70.41 19.93c-13.31 47.61-57.11 87.47-126.96 87.47-75.95 0-143.59-54.253-143.59-146.705 0-88.577 65.97-145.045 137.49-145.045m1.11 66.433c-35.48 0-53.22 26.019-54.89 46.502h110.33c-1.11-21.037-15.52-46.502-55.44-46.502" clip-rule="evenodd"/><path fill="#fff" d="M234.485 135.633 312.102 8.304h102.565L288.261 205.39l127.514 195.422H309.329l-77.616-127.329-77.062 127.329H51.531c28.863-44.68 83.45-66.843 123.729-101.584 26.563-22.91 43.376-56.812 43.376-94.642 0-37.719-16.715-71.533-43.141-94.441C135.22 75.233 80.51 53.037 51.531 8.304H156.87zm600.819 265.178h-84.271V0h84.271zm491.626-277.91c8.32 0 16.63 1.108 22.18 2.768v83.041c-9.43-2.214-18.3-2.768-26.61-2.768-33.82 0-64.31 19.93-64.31 74.737v120.132h-84.27V125.669h81.5v37.091c14.41-31.001 49.34-39.859 71.51-39.859"/><path fill="#fff" d="M111.342 221.665c.551.551.551 1.102.551 1.102 0 .552.551.552.551.552h.552l-.552-1.103c-.551-.551-.551-1.653-.551-2.204l-.551-1.654zm-3.858-54.017c-.552 0-.552.551-.552.551s0 .551.552.551c.551 0 .551-.551.551-.551zm.551-20.394c.551 0 .551 0 .551-.551l-.551-.552-1.103-.551c0 .551.552 1.654 1.103 1.654m2.756-1.103s0-.551-.551-1.102h-.552c0 .551 0 .551.552 1.102zm19.292 17.639c-.551 0-.551-.552-.551-.552v-.551c-1.103 0-1.654 1.103-1.654 2.205.551.551.551.551 1.654 1.102h.551zm-16.536 48.505h-.551v1.102s0-.551.551-.551zm12.677-42.442c-.551 0-.551 0-.551-.551 0-.552 0-.552.551-.552h.552s0-.551-.552-.551l-.551-1.102v.551h-.551v-1.102c-.551 0-.551-.552-1.102-1.103l-1.103-1.102c.551 0 .551 0 .551-.551h.552c.551 0 .551-.552.551-1.103s-.551-1.102-1.103-1.102-1.102.551-1.653 1.102-1.103 1.103-1.103 1.654l.552.551c0 .551.551 1.102.551 1.102s0 1.103.551 1.654 1.102.551 1.102 1.102v2.756c.552 1.103 2.205 1.654 2.756 1.654h.552v-.551c0-1.103 0-1.654-.552-2.205zm-13.228-20.394c0-.552-.552-.552-.552-.552l-.551-.551v.551c.551.552.551.552 1.103.552m7.165 3.858v-.551l-.551.551c0 .551.551 1.102.551 1.102l-.551-.551zm.551 18.741c.552 0 .552.551.552.551v-.551c0-.552-.552-.552-.552-.552zm2.756-22.599v-.552c-.551 0-.551.552-.551.552zm-9.921 13.779c.551 0 .551-.551.551-1.102l.551-.551v-.551c-.551 0-1.102.551-1.102.551s-.551.551-1.103.551l-1.102.551h.551c0 .551.551.551 1.103.551 0 .552 0 .552-.552.552h-.551l-.551.551-.551-.551v-1.103c0-.551 0-.551-.551-.551h-.552c0-.551 0-.551-.551-.551 0 0-1.102 1.102-1.102 1.653v.552c-.551 0-1.103 2.204-1.103 2.756.552.551 1.103 1.102 2.205 1.102.551 0 1.103 0 1.654-.551l.551-.551c.551 0 1.102.551 1.654 1.102 1.102.551 3.858.551 4.409.551v-.551c0-1.654-2.205-2.756-2.756-3.307zm36.93-20.945s0-.551-.551-.551c0 0 0 .551.551.551m-5.512 17.638c0 .551.551.551.551.551 0-.551 0-.551-.551-.551m34.174 54.017v-.551s-.551 0-.551.551zm-1.653-2.204h-.551s0 .551.551.551zl.551-1.103h-.551zm-1.103 11.575v.551c.552 0 .552 0 .552-.551zm0-11.024v-.551c0-.552 0-1.103-.551-1.654-.551 0-.551-.551-1.102-.551l-.551.551-.552 1.102v-2.204h-.551c0 .551 0 .551-.551.551h.551v2.205h.551l.552.551v1.653l-.552.552v.551l.552-.551v.551h.551c.551 0 .551 0 .551-.551v-.552h.551v.552c0 .551.551.551.551 1.102zm-3.858 7.165h-.551v.552zm1.654-1.653.551-1.103h-.551c0 .552 0 1.654-.552 3.308-.551.551-.551 1.653-1.102 1.653v.551l-.551-.551-.551-1.102.551-.551c0-.552 0-1.103.551-1.103v-.551c-.551 0-.551 0-1.102-.551 0 .551 0 1.102-.552 1.102l-.551.551v.552l-.551.551v.551l-.551.551v-1.102s-.551 0-.551.551-.552 1.102-1.103 1.653c0 .552 0 .552-.551.552 0 0 0 .551-.551 1.102 0 .551-.551 1.102-1.103 1.654l-1.102 1.102c-.551.551-1.102.551-1.102 1.102l-.552.552c0 .551.001.551-.551.551 0 0-.551 1.653-.551 2.756 0 .551-.551.551-.551.551 0 .551 0 .551-.551 1.654v1.653c0 .551-.552 1.103-.552 1.103 0 .551-.551 1.653-.551 1.653l-.551.551.551.552s.551 0 1.103-.552c.551-.551 1.102-.551 1.653-1.102 0 0 .551 0 .551-.551.552-.551 1.103-1.103 2.756-2.205h1.103v1.654h.551v1.102l-.551.551c0 .551.551.551.551.551h.551l.551-.551v.551l.552-.551c.551-.551.551-.551.551-1.102.551 0 .551 0 .551-.551.551-.552 1.654-3.308 2.205-3.859 0-.551 0-1.102.551-1.102 0-.551.551-1.103.551-1.654s.551-1.102.551-1.102v-1.654c.552 0 .552-.551.552-1.102v-6.614l.551-.552h-.551zm0 17.638v-1.654c0 .552-.552.552-.552.552v.551c0 .551 0 1.102-.551 1.653v1.103l-.551.551v.551s.551-1.102 1.102-1.653v-.552zm-1.654 3.307c-.551 0-.551 0-.551-.551 0 0 0 .551-.551 1.102 0 .552-.552 1.103-1.103 1.654l-1.102 2.205v.551c.551 0 .551-.551 1.102-1.654l1.103-1.102c0-.551 0-.551.551-1.102zm-5.512 2.205v1.102l-.551 1.103 1.102-1.103.551-1.102zm-5.512-82.128h-.551c.551 0 .551.551.551.551zm-59.529-9.922c.551 0 .551 0 .551-.551h-.551l-.552.551s0 .552.552.552zm-2.756.552h-.551c0 .551 0 .551.55.551zm-4.41 2.204v-.551l-.551.551h-.551c0 .552.55.552.55.552zm-1.653 0v.552c.55 0 .55 0 .55-.552zm19.291 23.151s0-.552-.551-.552c0 0-.551 0-.551.552zm-17.087-2.756c.552 0 .552.551 1.103.551v-1.103c0-.551 0-.551-1.103-.551h-1.102c0 .551.551.551 1.102 1.103m-3.858-4.961.551-.551c0-.552 0-.552-.551-.552zm-.551 2.756c.55 0 1.102-.551 1.102-1.103 0-1.102 0-1.102-.551-1.102s-.551.551-.551 1.102zm-4.961-.551s0 .551.551.551v-.551zm72.207 26.457c.551.551 1.102 1.654 1.102 2.205.551.551.551 1.102 1.103 2.756 0 1.653.551 2.756.551 2.756s1.102 1.653 1.102 2.204c.552 1.654 1.103 3.859 1.654 3.859v-3.307c0-.552-1.102-1.654-1.654-1.654v-1.102c-.551 0-.551-.552-.551-1.103-.551-.551-.551-1.102-1.102-2.756v-1.653s.551 0 .551.551l1.102 1.102c.552.552.551 1.103 1.103 1.103v1.102l.551.551.551-1.102v-.551s0-.551.551-.551c0-.552 0-1.103-.551-2.205 0-1.103-.551-1.654-1.654-3.859-.551-.551-1.102-1.653-1.102-2.204v-1.103c0-.551 0-1.102.551-1.102l.551.551c0 .551 0 1.102.552 1.102v.552s-.552 0-.552.551l.552.551c.551 0 .551 0 .551-.551s-.551-.551-.551-1.103-.552-.551-.552-1.102l.552-.551c.551 0 .551-.551.551-.551v-.552c.551 0 1.102 0 1.102-.551v-3.858c0-1.654 0-2.205-.551-2.205v-.551c0-.551 0-1.102-1.102-2.205-.552-1.653-.551-1.653-1.103-2.205 0 0 0-1.653.551-1.653 0-.551.001-.551-.551-1.103 0 0-.551 0-.551.552l-.551-.552s0-.551-.551-.551v-1.102l.551-.551v-.552c.551 0 .551 0 .551.552v.551h1.102l.552.551c0 1.102 0 1.102.551 1.102 0 0 .551.552.551 1.103 0 0 .551 1.653.551 2.205h.551l.552-.552-.552-1.102c0-.551-.551-1.102-1.102-2.205-.551-.551-.551-1.102-.551-1.102v-2.756h1.102v-2.756c0-2.205-.551-2.205-.551-3.307-.551-.552-.551-1.103-.551-1.654 0-1.102-1.102-2.756-1.654-2.756v1.102l-.551-.551v-.551c-.551 0-.551-.551-.551-.551h-.551v-.551c.551 0 .551-.551.551-1.103v-1.653h1.102c.552 0 .551 0 .551.551h1.103c-.551 0-.551-.551-.551-1.102 0-.552.551-.552.551-.552.551 0 .551.552.551.552 0 .551.551.551.551.551v-1.103s.551 1.103.551 1.654v1.102s0 .552-.551.552c0 0 0 1.102.551 2.204.552.551.552 1.103 1.103 2.205.551.551.551 1.102 1.102 1.654v-1.103l-.551-.551h.551s0-.551-.551-.551v-.551h.551l-.551-.552v-1.102l-.551-.551v-.551c-.551 0-.551 0-.551-1.103v-.551h1.102v.551c-1.654-3.307-3.307-6.063-5.512-8.268l-.551-.551v-.551h-.551c0-.551 0-.551-.552-1.102 0 0-.551 0-1.102-.552l-.551-.551h-.551c0-.551-.551-.551-1.103-.551v-.551l-.551-.551h-1.102v-.552h-.551l.551.552c-.551 0-.551 0-.551.551 0-.551-.552-.551-1.103-.551l-.551-.552v.552s-.551 0-1.102-.552l-.552-.551v-.551c-.551 0-.551 0-.551-.551 0 0-.551-.551-1.102-.551l-.551-.551v.551h-.552c-.551 0-.551-.551-1.102-.551 0-.552-1.102-.552-1.654-.552-.551-.551-1.102-.551-1.653-1.102h-.551v.551c-.552 0-.552-.551-.552-.551l.552-.551h.551c.551 0 .551 0 .551-.551l-.551-.552c-.551 0-.551-.551-1.103-.551l-.551-.551c-1.102 0-1.653-.551-1.653-.551 0-.551-.552-.551-1.103-.551h-.551c0 .551-.551.551-.551.551h-.551c-.552-.551-1.654-.551-2.756-.551-.552 0-1.103 0-1.654.551v1.102l-.551-.551h-1.654s.551 1.102 1.103 1.654h.551-1.103c-.551 0-1.102-.552-1.102-.552l-.551-.551v.551l.551.552h-.551l-.551-.552 1.102 1.103h-.551c-.551-.551-.551-.551-.551-1.103-.552 0-.552-.551-.552-.551v.551h-.551c0 .552 0 .552.551 1.103v.551c0 .551.552 1.102 1.103 1.102 1.102 0 1.653.552 1.653 1.103-.551-.551-1.102-.551-1.653-.551v.551l.551.551-.551.551s-.551.551-1.103.551-.551-.551-1.102-.551h.551c.551 0 .551 0 1.103-.551 0-.551 0-1.102-.552-1.102 0-.552 0-1.103-.551-1.654 0-.551 0-1.102-.551-1.102v-.552c0-.551-.551-1.102-.551-1.102-.551 0-.551 0-.551-.551h-.552v.551s-.551 0-.551.551v1.654s.551.551.551 1.102c.552.551 1.103.551 1.103.551s-.551 0-1.654-.551c-.551 0-1.653-.551-2.205-1.102-.551 0-1.653 0-1.653-.551v.551c1.102.551 1.102 1.102 1.102 1.102l-.551.551v-.551h-2.756l-.551-.551-.551.551c-1.103 0-2.205.551-2.205 1.103H115.2l-.551-.552h.551c.552 0 .552 0 .552-.551l-.552-.551h-1.102v.551c0 .551 0 .551.551 1.103 0 0 0 .551-.551.551h-1.102l-1.103.551 1.103 1.102h-1.103c-.551 0-.551-.551-1.102-.551h-.551l.551.551c.551 0 .551.551.551.551-.551 0-1.654-.551-2.205-1.102v-.551c0-.551 0-.551-.551-.551s-.551 0-.551-.551h.551l1.654.551h2.204v-1.103s-.551-.551-1.653-1.102c-1.654-1.102-1.654-1.102-4.41-1.654-.551 0-.551-.551-.551-.551h.551l-.551-.551h-1.102c0-.551 0-.551-.552-.551 0 .551 0 .551-.551.551 0 0-.551 0-.551.551v-1.102l-.551.551s-.551 0-.551.551h-1.654v.551c-.551 0-.551-.551-.551-.551h-.551v.551h-1.103v.552h-1.102c0 .551.551.551.551.551l-.551 1.102q-1.653.827-1.654 1.654c0 .551-.55.551-.55.551l-.552.551s-.551 0-.551.551c-.551.551-.551.551-1.103.551 0 .552 0 .552-.55.552 0 0-.552 0-1.103.551s-.551 1.102-.551 1.653v1.103l-.552.551h.552v.551s0 .551.55.551c.552 0 1.103 0 1.654-.551.552 0 1.103-.551 1.103-.551l.55.551v.551c0 .552 0 1.103.552 1.103v1.102l.551.551s0 .552.552.552v-.552c0-.551.55-.551.55-.551.552 0 1.103-.551 1.103-1.102v-.551c0-.552 0-.552.551-1.103.552 0 1.103-.551 1.103-.551v-1.102c-.551 0-.551-.552-.551-.552-.552 0-.552 0-.552-.551s.552-1.653 1.654-2.205c1.102-.551 1.102-.551 1.102-1.102s.551-1.102 1.654-1.102c.551 0 1.102 0 1.102.551l-.551.551c-2.205 1.654-2.205 1.654-2.205 2.205v1.102c0 .551.551 1.103 1.654 1.103h2.756c.551 0 1.102.551 1.102.551s-1.102.551-1.653.551c-1.654 0-2.205 0-2.205.551 0 0 0 .551.551.551v1.654l-1.102-1.102c-.552 0-1.103 1.102-1.103 2.204v.552c-.551 0-.551.551-.551.551s0 .551-.551.551l-.551-.551h-1.654c-1.102.551-1.653.551-1.653.551h-1.654c-1.102 0-1.654-.551-1.654-1.102 0-.552.552-.552.552-1.103.55 0 .55 0 .55-.551 0 0-.55 0-.55-.551h.55c0-.551 0-.551-.55-.551l-.552.551c0 .551-.55.551-.55.551v.551c0 2.756 0 2.756-.552 2.756-1.654 0-1.654 0-1.654.551l-1.102 1.103c-.551.551-1.102 1.102-1.654 1.102l-.55.551c0 .552-.552.552-1.103 1.103l-.552.551-.55-.551v.551c-.552.551-.552.551-1.103.551-1.102 0-1.102 0-1.102.551v.551q1.653 0 1.653 1.654v2.205c-.551.551-.551 1.102-1.102 1.102 0 0-.552-.551-1.654-.551H78.27c-.551.551-.551.551-.551 2.205 0 .551-.551 1.653-.551 2.205-.551.551-.551 1.102-.551 1.102.55.551.55 1.102.55 1.102l-.55 1.103 1.102-.551c.551 0 .551 0 1.102.551 0 .551.552.551 1.103.551 0-.551.55-.551 1.102-.551.551 0 1.103 0 1.103-.551l.55-.552c.552 0 1.103-1.102 1.103-1.653s1.103-2.205 2.205-2.756c.551 0 .551-.551 1.102-1.103 0-.551 0-1.102.552-1.102.55 0 .55.551 1.102.551 0 0 .551 0 1.654-.551l1.102-1.102q.826 0 1.654 1.653l2.204 2.205c1.103.551 1.654 1.102 1.654 2.205v1.102s.551 0 .551-.551c.551-.551.551-1.102.551-1.102s-.55 0-.55-.552h.55v-.551l.552.551h.55c0-.551-1.102-1.102-1.653-1.102l-.551-.551v-.551c-.551 0-1.102-.552-1.654-1.103 0-.551-.55-1.102-1.102-1.102v-1.103c0-.551.551-.551 1.102-.551 0 .551.552.551.552.551s.55 0 .55.552c.552.551.552 1.102 1.103 1.102s1.103.551 1.654 1.102c.55.552 1.102 1.103 1.102 1.654s0 1.102 1.102 2.205c.552.551.552 1.102.552 1.102 0 .551.551 1.654 1.102 1.654s.551 0 .551-.551v-.552c.551 0 .551-.551.551-.551 0-.551 0-.551-.551-.551h-.551v-1.654c.551 0 .551 0 1.102-.551 0-.551.552-.551.552-.551.551 0 1.102.551 1.102 1.102 0 .552 0 .552.551.552v1.653c.551 0 .551.551.551.551 0 .552 0 .552.552 1.103.551 0 1.102.551 1.102.551h1.102l.552-.551.551.551c.551 0 .551.551 1.102.551s.551-.551.551-.551.552-.551 1.103-.551h.551v4.409c-.551 1.654-.551 2.205-1.102 2.205-.552 0-.552 0-1.103-.551h-1.653l-1.103.551c-.551 0-1.102-.551-1.653-.551-.552 0-1.654-.551-2.205-.551-1.103-.551-1.654-.551-1.654-.551 0-.552 0-.552-.551-.552h-.551c-1.103 0-1.654.552-1.654 1.103v1.102l-.551.551-1.102-.551c-.551-.551-1.103-.551-1.654-.551s-.551-.551-.551-.551c-.551-.551-1.654-1.103-2.205-1.103h-.551s-2.205-1.102-2.205-1.653l1.103-1.103-.552-.551v-1.102l.552-.551H92.6v.551c-.55 0-.55-.551-.55-.551h-.552c-.551 0-2.205 0-3.858.551-1.654 0-3.859.551-5.513 1.653h-.55c-.552 0-2.205 0-2.205-.551-.552 0-.552 0-1.103 1.103 0 .551-.551 1.102-1.102 1.653-1.103.551-2.205 2.205-2.205 3.307 0 .552-1.102 1.654-2.205 2.756-1.102.551-2.756 2.756-2.756 3.307 0 0-.551.552-.551 1.103-.551.551-1.102 1.102-1.102 2.205l-1.103 1.102.551.551c0 .551 0 1.103-.55 3.307 0 1.103-.552 3.308-1.103 3.308v2.204c0 1.103 0 1.103.551 1.103l.551.551s0 1.102.551 1.653c.552.552.552 1.654.552 1.654 0 1.654 2.204 3.307 3.307 4.41.551 0 .551.551 1.102.551s1.103-.551 2.205-.551h2.205c1.102 0 1.653 0 2.756-.552 1.102-.551 2.756-1.102 3.858-1.102.551 0 .551 0 1.103.551.55 0 1.102.551 1.102 1.103s.551.551 1.102.551h.552c1.102 0 1.653 0 2.204.551s.552 1.102.552 1.654v1.653c0 1.103-.552 1.654-.552 2.205s.552 1.102 2.205 2.756c1.103 1.654 2.205 3.858 2.756 6.063 0 .551.551 1.654.551 2.205s0 1.102-.55 1.653c-.552.552-1.103 3.308-1.103 4.41s1.653 2.756 2.205 4.41c.55 0 1.102 1.102 1.102 2.204 0 1.654.551 2.756 1.102 3.307 1.103.552 2.205 3.308 2.205 3.859s.551 1.653 1.102 1.653h1.103s1.102-.551 1.653-.551c2.756 0 4.961-1.102 6.064-2.756.551-.551 1.102-1.653 1.653-2.205.551-.551.551-.551 1.103-1.653 0-1.102 0-1.102 1.102-1.654s1.102-1.102 1.102-1.653v-2.205c0-1.102 0-1.102.552-1.654l1.102-1.102c.551-.551 1.102-1.102 1.654-1.102s1.102-.552 1.102-1.103c1.102-.551 1.102-1.102 1.102-3.307v-2.756s-.551-.551-.551-1.654v-1.653c0-.551 0-1.102.551-2.205.552-1.102 1.103-2.205 1.654-2.756l2.205-2.205c.551-1.102 1.653-2.204 2.205-2.204 1.653-1.654 2.756-3.308 2.756-5.512.551-1.103.551-2.205 1.102-2.205v-1.654c0-1.653-.551-1.653-.551-1.653-.551.551-1.654.551-2.756 1.102-1.103.551-1.654.551-2.205.551s-.551-.551-1.102-.551v-1.102s-1.654-2.205-3.308-3.307c-.551-.552-1.102-1.103-1.102-2.205-.551-.551-.551-1.103-1.102-1.654-.552-.551-1.103-1.102-1.103-2.205s-.551-1.653-1.102-2.204-.551-1.103-.551-1.654c-.552 0-.552-1.102-1.103-1.654s-.551-1.653-1.102-2.204c0-.552-.551-1.654-1.103-2.205 0-.551-.551-1.102-.551-1.102.551 0 .551.551 1.103 1.102l.551 1.102c.551 0 .551 0 .551-.551 0 0 .551 1.102 1.654 2.205.551.551 1.102 1.653 1.102 1.653 0 .552 0 .552.551 1.103s1.103 1.653 1.654 2.756c0 .551 0 1.102.551 1.653l1.102 1.103c0 .551.552 1.102 1.103 1.653.551 1.103 1.102 1.654 1.102 2.205 0 1.103 1.103 3.307 1.103 3.859.551 0 .551 0 1.102-.552.551 0 .551-.551 1.102-.551h.552l.551-.551s.551 0 .551-.551c.551 0 1.102-.551 1.654-.551l1.102-1.103c0-.551.551-1.102 1.102-1.102.552 0 .552-.551.552-.551 0-.552.551-.552.551-.552s.551 0 .551-.551v-.551c.551 0 .551-.551.551-.551v-1.103s.551-.551.551-1.102v-1.102s0-.552-.551-.552c0-.551-.551-1.102-1.102-1.102s-1.103-.551-1.103-1.654c0-.551 0-.551-.551-1.102 0 .551 0 1.102-.551 1.102 0 .552-1.102 1.103-1.654 1.103s-1.102-.551-1.102-1.103 0-.551-.551-.551v1.103l-.551-1.103c0-1.102-.552-1.653-.552-1.653l-1.102-1.103-.551-1.653h.551l.551-.551c.551 0 .551.551 1.103 1.102.551 1.653 1.653 2.756 3.307 2.756h1.102v-.551l.551 1.102.552.551c1.102.551 2.756.551 4.409.551h1.654s0 .552.551 1.103c1.102 1.102 1.654 1.653 2.205 1.653h.551c0 .552 0 .552-.551.552h-.551l1.102 1.102c0 .551.551.551.551.551.551 0 .551-.551.551-1.102v-.551l.552 1.102c.551.551.551 1.102.551 1.102 0 1.654 1.102 3.859 2.205 5.512 0 1.103.551 1.654.551 1.654 0 .551.551 1.102 1.102 1.654 0 1.102.551 1.653 1.103 2.755l.551 1.103s.551-.551.551-1.103v-5.511l-.551-1.103h.551v-1.102s.551-.551 1.102-2.205c0-.551.552-1.102.552-1.102v-1.654c.551 0 .551-.551 1.102-.551h.551v-1.103c.551 0 .551.552 1.103 1.654 0 .551.551 1.102 1.102 1.102 0 0 0 .552.551 1.103 0 0 .551 1.653.551 2.205 0 .551.552 1.102.552 1.102.551 0 .551 0 .551-.551.551-.551.551-.551.551-1.103 0 .552 0 1.103.551 1.654zm-7.166 6.614v.551c0 .552 0 2.756.552 2.756 0 .552.551.552.551.552l.551-.552c0-.551-.551-1.102-1.102-2.204zm-18.74-2.204c.551 0 .551 0 .551-.552h-.551zm-1.103 34.174v-.552l-.551.552zm-.551 28.662.551-.552v-.551c-.551 0-.551.551-.551.551zm-8.268-28.111c-.551.551-.551.551-.551 1.653 0 1.654.551 2.205 1.653 2.205l.552-.551c1.653-1.654 2.204-4.41 3.307-6.614v-1.103c.551 0 .551-.551.551-.551v-.551c.551 0 .551 0 .551-1.103 0-.551-.551-2.204-.551-2.204-.551 0-.551.551-.551.551 0 .551 0 .551-.551 1.102 0 0-.552.551-.552 1.103-.551.551-1.102.551-1.653 1.102-1.103.551-1.654 1.102-1.654 2.756 0 1.102 0 1.102-.551 2.205m23.702 40.788c-.552.551-1.103.551-1.103.551h-1.102l-.551.552v-.552l-.552.552v-.552c-.551 0-1.102 0-1.653.552h-.551v-.552s-.552 0-.552.552l-.551.551c-.551 0-1.102 0-1.102.551h-1.103s-1.653 1.102-2.204 1.102h-1.654s-.551 0-1.102.552c0 0-.552-.001-1.654.551h-1.654v.551c-.551 0-.551 0-1.102.551-1.102 0-1.654 0-1.654.551h-.551c-.551 0-1.102.551-1.102 1.103-.551 0-1.103.551-1.654.551-.551.551-1.102.551-1.102.551l-.551.551h-.552c-.551 1.103-1.102 1.103-1.653 1.103 0 0 0-.552.551-.552l.551-.551h-.551l.551-.551s1.103-.551 1.103-1.102h-4.41s-.551 0-.551-.552c-.551 0-2.205.552-2.756 1.103h-.551c0 .551 0 .551-.552.551h-1.102s-.551 0-.551.551c-1.103 0-2.205.551-2.205.551-.551.552-1.102.552-1.102.552-.552 0-.552 0-.552-.552l-.551-.551-.551.551c-.551.552-1.102.552-2.756 1.103H92.05c-1.102.551-1.653.551-2.756.551-.551-.551-1.102-.551-1.102-.551 0-.551 0-.551-.551-.551l-.552.551v.551l-.55-.551h-1.654l.55.551h-1.102v.551h-.55c-.552 0-.552 0-.552.551h1.102l-1.102.552c-.551 0-.551 0-.551.551h-3.307c-1.654 0-4.41 0-4.41.551l1.654 1.102h1.653l-.551.552h1.102l-.55.551c4.96.551 10.472 1.102 15.433 1.102 19.292 0 37.481-6.063 52.364-17.087m-74.412-8.819.551.551c.551 0 .551-.551.551-.551zm0 22.599-.551-.551c0-.551-1.654-1.103-2.205-1.103s-.551 0-.551.552c0 0-.552.551-1.103.551 1.103 0 2.205.551 3.307 1.102h1.103zm-4.41-143.311v.552s.551 0 .551.551c.552 0 .552-.551 1.103-1.103s.551-1.102.551-1.653c0 0 .551-.551 1.102-.551.552-.552.552-1.103.552-1.103l.55-.551c0-.551 0-.551.552-.551.551-.551 1.102-.551 1.102-1.102h.552l-.552.551h.552s.55-.551 1.102-.551c0 0 1.102-.552 1.102-1.103l-2.204-.551s3.307 0 3.307-.551l.551-.551v.551h.551c1.103 0 2.205-.551 3.859-1.103l1.102-.551h-.551c0-.551-.552-.551-.552-.551h-.55c.55 0 .55-.551.55-.551v-.551l.552.551c0 .551 1.653.551 1.653.551 0-.551-.55-1.654-1.102-1.654-.551-.551-.551-1.102-.551-1.102h.55c0 .551.552 1.102 1.103 1.102 0-.551 0-.551-.55-1.102-.552 0-.552-.551-.552-.551h.551c.551 0 .551.551 1.103.551.55 0 .55-.551.55-.551 0-.551.552-.551.552-.551h.551c0-.552-.551-.552-.551-.552s-.551 0-.551-.551h1.102c0-.551-.551-1.102-.551-1.102h-.551s0-.551.55-.551h.552v.551h.551v-.551c0-.552 0-.552-.55-.552l-.552-.551-.551.551c0-.551.55-.551.55-.551 0-.551.552-.551.552-.551l.551-.551s0-.551.552-.551h.55c.552-.552 1.103-1.103 2.206-1.103 0-.551.55-.551.55-.551h-.55l-.552-.551c-.55 0-.55 0-1.102.551h-2.205c-.551.551-1.102.551-1.102.551l1.102-1.102h-1.102c.55 0 1.102-.551 1.102-.551h-.551c-.551 0-1.102-.552-1.102-.552h-5.512c-.552 0-.552.552-1.103.552h-2.756v1.653l-1.653-.551-1.103-.551v.551c0 .551-.551.551-.551.551h-1.654c-.55 0-2.756.551-3.307 1.103h-.551c-.551.551-2.205 1.102-2.756 1.102 0 .551 0 .551.551.551h.551c-.55 0-.55.551-1.653.551-2.205 1.103-2.756 1.103-2.756 1.103 0 .551 1.102.551 1.653.551l-.55.551h-.552s0 .551.551.551h2.756c1.103 0 1.654 0 1.654.552.551 0 .551.551.551 1.102v1.654c-.551 0-.551.551-.551.551h1.653v1.102l-.55-.551h-.552s-.551 0-.551.551l-.551.551c0 .552.55.552 1.102.552 0 0 0-.552.551-.552h-.551c0-.551 0-.551.551-.551v.551h.551v.552c-.55 0-.55.551-1.102.551 0 0-.551.551-1.102.551-.552.551-.552.551-.552 1.102h.552c0 .552 0 .552-.552.552v2.204l.552-.551h.55l-1.102 1.102.552 1.103c0 1.653.55 1.653 1.102 1.653zM63.94 287.808v-.551h-.551zm-2.205-4.96v-.552h-.551v-.551c0-.551 0-.551-.551-.551v-.551l-1.654-1.102-.551-.552v-.551c0-.551.551-.551.551-.551h.551c0-.551.552-1.102 1.103-1.102h.551v-.552h-.551l-.551.552c-.552 0-1.654 0-1.654.551h-.551l-.551.551v.551s.55 0 .55.551c0 .552 0 .552-.55.552v-.552l1.102 1.654c0 .551 0 .551.551.551 0 .551-.551.551-1.653.551l-1.654-.551-.551-.551v.551h-.551l-.552-.551c-.55 0-.55 0-1.102-.551h-.551v.551l-.551-.551c-.552-.552-1.103-.551-1.103-.551s-.551-.552-1.102-.552h-.551c0-.551 0-.551-.552-.551-1.653 0-3.307-1.102-4.96-2.205h-.552c0 .552.552.552.552.552.55.551 1.102.551 1.102.551h-.551l-.551-.551v.551h.55s0 .551.552.551c3.307 2.205 7.166 4.409 10.473 6.063h.551s-.551 0-1.102-.551h-.552v-.551l.552.551c1.102.551 2.756 1.102 2.756 1.102s0-.551-.552-.551c-1.102-.551-2.204-1.102-2.204-1.654 0 0 .55.552 1.102.552 1.102.551 2.205 1.102 3.307 1.102h2.205c.551 0 .551 0 .551-.551zm-18.19-6.615s.552 0 .552.552c.551 0 .551 0 1.102.551h.551c0-.551-.55-.551-1.653-1.103zm5.513-12.677v.551l.55-.551zm1.102 0s-.551 0-.551.551h.551c.551 0 .551 0 .551-.551zm4.41 15.985v-.552c-.552 0-.552 0-.552.552zm1.653 1.102s0 .551.551.551h1.103c0-.551 0-1.102-1.103-1.653-.55-1.103-.55-1.103-1.102-1.103v1.103h.551l.551.551h-1.102zm-22.599-87.64s1.654.551 2.205.551c0 0 .551 0 1.102-.551h.551s0-.551-.55-.551c-.552-.551-1.103-.551-1.654-.551 0 .551-.552 1.102-1.103 1.102zm-1.653-.551c-.552 0-.552 0-.552.551l.552.551c.55 0 .55 0 .55-.551zm.55-1.103h1.103c.551 0 .551-.551.551-.551 0-.551 0-.551-.55-1.102-1.103-1.654-1.655-2.205-2.206-2.205l-.55.551c-.552 0-1.103 0-1.103.551 0 0 .55 0 .55-.551.552 0 1.103 0 1.103.551l.552.552c.55 0 .55.551.55.551v.551c.552 0 .552.551.552.551zm5.513 2.205s0 .551.55.551c0 0 .552 0 .552-.551zm1.653 8.268-.55.551v.551c.55 0 .55-.551.55-.551zm12.127-39.135c0 .551.55.551.55.551zm2.204-3.307c-.55 0-.55 0-.55.551l.55.551zm4.961.551c-.551 0-.551 0-1.102-.551 0-.551 0-.551.551-1.102l.551-.551c-.551 0-.551 0-1.102.551s-1.103 1.102-1.103 1.653c-.55 0-.55.551-.55.551s-.552.001-.552.552v.551h-.551 2.205v1.102l1.653-1.653v-.552l.551-.551zm0 1.654-1.102 1.102h.551l.551-.551zm-13.229-5.512s-.55 0-.55.551h.55zm2.205-2.756h.551s0-.551-.55-.551zm2.205-6.614c-.551 0-.551 0-.551.551 0 0 .551 0 .551-.551m.551.551v.551s0-.551.551-.551zm.551-2.205s-.55-.551-1.102-.551v-.551s-.551.551-.551 1.102c-.551 0-1.103.551-1.103 1.102h-.55 1.102v.552l.55-.552c.552-.551.552-.551 1.103-.551 0 0 0 .551.551.551zm5.512-3.307v-.551c-.55 0-.55.551-.55.551zm-.55-1.102c0 .551 0 .551-.552.551-.551 0-.551.551-.551 1.102.551 0 .551-.551 1.102-1.102zm-31.97 18.74s0-.551.55-.551v-1.102s0 .551-.55.551zm-2.756-2.756c.55 0 .55-.551.55-.551s.552 0 .552-.551zm21.496 106.381c.552 0 .552.551.552.551l-.552.551h.552v.551h-.552l.552.551h.55c0 .552 0 .552.552.552v-.552l.551.552h1.654l-.551-.552c-.552 0-1.654-1.102-1.654-1.102l-1.102-1.102h.55l-1.102-1.103c0-.551.552-.551.552-.551v-.551l.55-.551c.552 0 .552-.552.552-.552 0-.551 0-.551-.551-.551s-1.102-.551-1.102-1.102 0-.551.55-.551c0 0 .552 0 .552-.551v-1.654l-1.102-1.102h1.102l.551.551c.551 0 .551-.551.551-.551 0-.552-.55-1.103-.55-1.103h.55c1.654 0 2.205 0 2.205-1.102l.551-.551c0-.552 0-.552-.551-.552v-.551l-1.102-1.102c.55 0 1.102.551 1.653.551 1.103 0 1.103 0 1.654-.551l.551-1.103c0-1.102.551-1.653.551-1.653s.551-.551.551-1.103c.552-.551.552-1.102.552-2.204v-1.654c.55-.551 2.756-1.653 3.307-1.653s1.653-.552 1.653-.552v-1.653c.552-.551.552-1.103.552-1.103v-6.063c1.102-1.653 2.204-2.756 2.204-4.409v-2.205c-.55-1.103-.55-1.654-1.102-1.654l-2.205-1.102c-1.102-1.103-1.653-1.654-2.205-1.654-.55 0-1.102-.551-1.653-.551H51.26l-.55-.551c0-.551 0-1.102-1.103-1.654-.551 0-1.103-.551-1.654-.551v.551c-.55.552-.551 1.103-1.102 1.103 0-.551 0-.551.551-1.103v-.551c0-.551 0-.551-.551-1.102-.551 0-.551 0-1.102.551V214.5l.55-1.103-.55-.551s-.552-.551-.552-1.102c0-.552-.55-1.654-1.102-2.205 0-1.103-.551-1.103-1.654-1.654-1.653 0-1.653-.551-2.205-1.653 0-1.103-.55-1.654-1.102-1.654v-1.654c-.551 0-.551-.551-.551-.551v-.551l-1.103.551h-1.1c0-.551-.551-.551-.551-.551-.551 0-.551 0-1.103-.551v-.551c-.55 0-.55-.551-.55-.551 0 .551 0 .551-.552.551l-.551.551h-.551l.55-1.102c-.55 0-1.101.551-1.101.551h-1.103v.551h-.551c0 .551-.551 1.102-.551 1.653l-1.103.552v-.552l-.55-1.102-1.103.551-.552.551v-.551c-.55-.551-.55-1.102-.55-1.653s0-.551.55-2.756c1.103-1.654 1.103-1.654 1.103-2.205s-.551-.551-1.102-.551l-1.654-.551h.551c0-.552.551-1.103.551-1.654s.552-1.102.552-1.102l.55-.552c0-.551.552-1.102.552-1.102l.551-1.102h-.551c-1.102 0-1.654.551-2.205 1.653 0 .551-.551 1.103-1.102 1.103H23.15c-.55 0-.55-.552-.55-1.654 0-1.654.55-2.205 1.101-3.307 0-1.103.552-2.205.552-2.205.55 0 .55-.551.55-1.102.552-1.103 1.654-2.205 1.654-2.205s.552 0 .552-.551c.55-.551.55-.551 1.102-.551.551 0 1.102 0 1.654.551l.55.551v-1.102c0-.552 0-.552 1.103-.552.552 0 1.103.552 1.103.552v.551l.55-.551c.552 0 .552 0 .552.551s0 .551-.551 1.102v1.654s0 .551-.551.551c0 .551.55 1.102.55 1.102l.552-.551c.551-.551.551-1.654 1.102-3.858v-1.103c.552-.551 1.103-1.653 1.654-1.653 0 0 0-.551.551-1.103s1.103-.551 1.103-.551 0-.551.55-.551l.552-.551s.551 0 .551-.551h.551v-1.103l.552-.551c0-.551 0-1.654.55-2.205v.551l-.55 1.103.55-.551s.552-.552.552-1.103c0 0 0-.551.551-.551 0 0 .551 0 .551-.551.552-.551.552-.551 1.103-.551v-.552s.551 0 1.102-.551c.551 0 .551 0 .551-.551s1.103-1.654 2.205-2.205c.551 0 1.103-.551 1.103-.551.55 0 .55-.551.55-.551h1.103l.551-.551-1.102 1.102c-.551 0-.551 1.102-.551 1.102s.551 0 .551-.551c.551 0 1.102-.551 1.102-.551.552 0 1.654-.551 2.205-1.102h.551v-1.103l-.55.551c-.552.552-.552.552-1.103.552s-.551-.552-.551-1.103v-.551c0-.551 0-.551-.552-.551h.552c0-.551.55-.551.55-1.103h-.55c-1.103 0-1.654.552-3.308 1.654v.551l.552-1.102c.55-.551 1.102-1.103 1.653-1.103 0-.551.551-1.102 1.103-1.102.55-.551 1.102-.551 2.204-.551h2.205c.551-.551 1.103-1.102 1.654-1.102 1.102-.552 1.102-.552 1.102-1.103l.551-1.102h-.55v-1.103s-.552 0-.552-.551h-.551v-5.512l-1.103 1.103c-.55.551-1.102 1.102-1.653 1.102 0-.551 0-.551-.551-.551l.55-.551v-1.103l-.55-.551c0-.551-.552-1.102-1.103-1.102h-1.653c0 .551 0 1.102-.552 1.653-.55 1.103-.55 1.103-1.102 1.654l-.551.551.551.551s0 1.103-.551 2.205c-.551 0-1.103.551-1.103.551l-1.102 1.103s0 .551-.551 1.102c-.551 1.102-.551 1.654-1.102 1.654l-.552.551v-2.205l1.103-1.654h-1.103s-.55 0-.55-.551l-.552-.551c0-.551-.551-.551-1.102-.551-.552 0-.552 0-.552-.551v-1.103s0-.551 1.103-1.653c1.102-1.103 2.204-2.205 2.756-2.205v-.551l1.102-.552c.551 0 2.756-2.204 2.756-2.756h.551v.552h.551c0-.552 0-.552.552-.552l.55-.551c.552 0 .552 0 .552-.551s0-1.102.551-1.102v-.551c-.551 0-.551-.552-.551-.552h1.102c1.103 0 1.103 0 1.654-.551v-.551l.551.551v.551c0 .552.551.552.551.552s.552.551.552 1.102l-1.103 1.102c-.551 0-.551.551-.551.551 0 .552 0 .552-.551.552h-1.103l-1.102 1.102h2.205l.551.551v.551h.551c0 .552.551.552.551.552.552 0 .552.551.552.551.55 0 .55 0 .55-.551l-.55-.552v-.551h.55l.552.551.551-.551v-1.653h-.551c0-.552 0-.552.551-1.103l.551-.551.552 1.102s0 .552.55.552v-.552h.552l.551-.551c0-.551.551-.551.551-.551s0-.551-.55-.551h-.552v-.551c-.551 0-1.102-.551-1.102-.551 0-.552 0-.552.55-.552v-.551l.552-.551h-.551c0-.551 0-.551-.551-.551h-.552v-.551h-.55v.551c-.552 0-.552-.551-.552-.551 0-.552 0-.552-.551-.552v-.551s-.551-.551-1.103-.551l-.55.551H55.12c-.551.551-1.103.551-1.654 1.103v1.102h-.551v-.551l1.654-1.654h-.552c-.55 0-1.653.551-2.204 1.654-.552.551-.552.551-.552 1.102s0 .551.552.551h.55v1.103s-.55 0-.55.551H50.71v.551l-.551.551v-1.102c.551 0 .551 0 .551-.551-.551 0-.551 0-1.102.551v-.551s-.551 0-.551-.551h.55v-1.103s0-.551.552-.551c0-.551.551-.551.551-.551l1.654-1.103h-.551c-.552 0-1.654 0-1.654.552-.551 0-.551 0-.551.551-.551.551-.551 1.102-1.103 1.102 0 .551-.55.551-.55 1.103v.551h.55l-.55.551s0 .551-.552.551c-.551.551-.551.551-.551 1.102H46.3v-.551c0-.551 0-.551.55-.551.552 0 .552 0 .552-.551s0-.551-.551-.551l-1.102 1.102h.55l-.55.551-1.103.551c-.551 0-1.102-.551-1.654-.551 0 0-1.102 0-1.102.551h.551l.551-.551c0 .551-.55.551-.55.551-.552.552-.552.552-1.103.552v1.102h-.551l.55-.551c0-.551 0-.551-.55-.551l-1.103.551h-.55v-.551c-.552 0-1.103 0-1.103-.552-.552 0-.552 0-1.103.552h-.55l-.552.551v-1.103l-.551.552s-.552 0-.552.551c-1.102 0-1.653.551-2.204 1.102h-3.308l-.55.551h-.552c-.551.552-1.102.552-1.102 1.103-.552.551-1.654 1.653-2.205 2.756 0 .551-.551.551-.551.551l-1.103 1.102c.552 0 .552 0 .552-.551h.55l-1.653 1.654c-.551.551-1.102 1.653-1.654 2.205 0 0 0 .551-.55.551v.551h.55c0 .551-.55 1.102-1.102 1.102 0 .552-.551 1.103-.551 1.103h-.551c.55 0 1.102-.551 1.102-.551l.551-.552c.552 0 .552 0 .552-.551 0 0 .55 0 .55-.551.552 0 .552-.551 1.103-.551v-.551l.551-.552s.552 0 .552-.551l1.102-1.102v.551c-.551 0-1.102 1.102-1.102 1.102v.552l.55-.552c0-.551.552-.551.552-.551s0-.551.551-.551h.551v1.102h.552c0 .552-.552.552-.552.552v.551l.552-.551v-.552c0 .552 0 1.103-.552 1.103v.551c-.55.551-.55 1.102-.55 1.102h.55v-1.653c.552 0 .552 0 .552.551-.552 0-.552 1.102-.552 1.102v.552l-.55 1.102.55-.551v-.551l-.55.551v1.653l-.552.551h.551l-.551.552v-.552h-.551c0 .552.55 2.205.55 2.205v-.551c0-.551.552-1.102.552-1.102v1.653l-.551.551-.551-.551v.551c0 .552-.552 1.103-1.103 2.205-1.102 1.654-2.204 3.307-2.756 4.961v.551c-.55.551-.55 1.654-.55 1.654s-.552 1.102-.552 1.653c0 .552 0 1.103-.551 1.103 0 .551.55.551.55.551v2.756c-.55.551-.55 1.654-.55 2.205s0 1.102-.552 1.102v3.858s0-.551.552-1.102v-2.756c.55-.551.55-1.653.55-1.653v-1.103l.552-1.102v.551c.551 0 .551 0 .551.551l-.55.551v3.859c-.552.551-.552 1.102-.552 1.653v3.859c-.551.551-.551.551-.551 1.102s0 1.654.55 1.654c0 .551 0 .551.552.551 0 .551 0 1.102.551 1.653.552.552.552.552 1.103.552l.55-.552c.552 0 .552.552.552 1.654 0 .551 1.102 1.654 1.654 1.654.55 0 .55.551.55.551v3.307c.552 0 .552.551.552 1.102v.551c.551 0 .551.552.551.552.552.551.552 1.102 1.103 1.102v-.551c0-.551.55-1.103.55-1.103h.552v1.103c0 1.653-.551 5.512-1.102 5.512v.551c0 .551-.552 1.102-.552 1.102v3.859c.552 0 .552 0 .552.551l-.552.551v.551c0 1.103 0 2.205.552 2.756.55.552 1.102 1.654 1.653 2.756.552 1.654 1.103 2.756 1.654 3.859 0 .551.551 1.653.551 1.653 0 .551 1.102 1.654 2.205 2.756 1.653 1.103 2.205 2.756 2.756 4.41 0 2.205.551 4.409.551 6.614 0 1.102.551 1.654.551 1.654v1.653c.551 1.103.551 2.205.551 4.41v1.653c0 .552.552 1.103.552 1.103v2.756c0 .551 0 .551.55.551v-1.654s.552 1.103.552 2.205v1.654h-1.102c0 .551.55.551.55.551.552 0 .552 0 1.103 1.653l-.55-.551v1.103l.55.551v-.551c.551 0 .551 0 .551.551 0 0 0 .551-.55.551h.55s.552.551.552 1.102c.55.552.55.552.55 1.103l.552.551h.551v.551c.551 0 .551-.551.551-1.102zM36.38 141.191c.551 0 1.102 0 1.102-.551.552 0 1.103-.552 1.654-1.103 0 0 0 .551-.551.551 0 0 0 .552-.551.552h.55v.551h.552l-.551.551c-.551 0-.551 0-1.103.551h.552c.55 0 .55 0 .55.551 0 0 2.206-.551 2.757-1.102h.551c.551 0 1.654-.551 1.654-1.102h.55v-.552h-.55v-1.102c.55-.551.55-.551.55-1.102.552 0 .552 0 .552-.552 0 0-.551.552-1.102.552 0 0 0 .551-.552.551v.551l-.55.551v-1.102l-1.103 1.102v-.551h-1.103c0-.551 0-.551-.55-.551 0 0-.552 0-.552.551h-1.102l-.552.551s0 .551-.55 1.103c-.552 0-.552 0-1.103.551zm2.756-3.859h1.102s.552 0 .552-.551h.55s.552-.551 1.103-.551c-.55 0-1.653 0-2.205.551l-1.102 1.103zm1.654 0h-.552v.552zm1.653-1.102c-.55 0-.55.551-1.102 1.102h.551c-.551 0-.551.552-.551.552.551 0 .551 0 1.102-.552.551 0 1.654-.551 1.654-.551.551 0 1.102-.551 1.654-1.102h-1.103v-.551l-.551.551v.551l-.551.551s-.552 0-.552-.551zm1.654-1.102s.551 0 .551-.552h-.551l-.551.552zm.551-.552.551-.551h-.55l-.552.551zm1.654 2.756-.552.552h-.55v.551h.55c0 .551 0 .551.552.551 0-.551 0-.551.55-.551 0 0 .552-.551.552-1.103h-.551l.551-.551h.551-1.653c0 .551-.552.551-.552.551zm0-2.204v.551h.55l.552-.551v.551c.551 0 1.102-.551 1.102-1.103h.552-1.103c0 .552-.551.552-.551.552zm.55-.552v-.551c-.55 0-.55 0-.55.551zm1.103-1.653-.551.551h1.654v-.551zm2.205 1.653c-.551 0-.551 0-1.102.552l-.552.551h.552c.55 0 1.102-.551 1.102-1.103m0-.551c.551 0 .551 0 .551.551v.552s.551 0 2.205-.552c1.102 0 2.756-.551 2.756-.551h.551v-.551c-.551 0-1.102 0-2.205.551h-2.204l-.552-.551H50.16s-.551 0-.551.551zm0-1.102s0 .551.551.551v-1.102h.551-1.653c0 .551 0 .551.551.551m2.205 0h.551l-.551-.551zm0-1.654-.551.551.55.552s.552-.552 2.206-1.103l-.552.551h1.103c0 .552-.551.552-.551.552h-1.103v.551c-.551 0-1.102.551-1.102.551.551 0 1.102-.551 2.205-.551l2.756-.551v-.552c.55 0 .55-.551.55-.551h.552c.551-.551 1.102-.551 1.102-.551l.552-.551h-.552s0-.551.552-.551c.55 0 1.653-.552 2.756-1.103.55-.551 1.653-1.102 1.653-1.102.551 0 1.103 0 1.103-.551l.55-.552c.552 0 1.103 0 1.654-.551h-1.653c-2.205 0-4.961.551-6.063 1.103-.552.551-1.654.551-1.654 1.102h-1.654c-.55.551-1.102.551-1.102.551-1.102.551-1.102.551-1.102 1.103h1.102c0-.552.551-.552.551-.552v.552c1.103-.552 1.654-.552 1.654-.552 0 .552-.551.552-1.103.552-1.102 0-1.102.551-1.102.551H54.57c-.552 0-1.103-.551-1.103-.551l-1.102.551c0 .551 0 .551-.551.551l-.552.551zm20.945-7.717s0 .552.552.552l.55-.552zm16.536 16.536v.552h-1.653c-.551.551-1.103.551-1.103.551h-.55c0-.551-.552-.551-.552-.551l-1.102.551h.55c.552 0 .552.551.552.551l-.551.551h.55v.551s0 .551.552.551c1.654 0 4.41-.551 4.96-1.653zm-8.268 13.229c.552 0 .552 0 .552-.551s-.552-.551-.552-.551c-.55 0-1.102 0-1.102.551s-.551.551-.551.551c-.551 0-.551 0-.551.551v.551c0 .552 0 .552-.552 1.103v.551h1.654c.551-.551 1.102-1.654 1.102-2.205zm4.961 2.205c.551 0 .551-.551.551-.551 0-.552 0-.552-.55-.552-.552 0-.552 0-.552-.551s-.551-.551-.551-1.102c-.552 0-.552 0-.552-.551 0-.552 0-.552-.55-.552v-1.102c.55 0 .55-.551.55-.551 0-.551 0-.551-.55-.551h-.552l.551-.552-.55-.551-.552.551s-.551.552-.551 1.103l-.552 1.102c.552 0 .552 0 .552.551v.552c0 .551 0 .551.55.551h.552v1.102c0 .551-.551.551-.551.551-.551 0-.551 0-.551.552v.551c-.552 0-.552.551-.552.551h.552l.55.551c-.55 0-1.102.551-1.102.551l-.55.552c.55 0 1.102-.552 1.653-.552h1.654c.55 0 1.102-.551 1.102-.551 0-.551.551-.551.551-1.102m4.96-29.765.552.551c0 .552 1.103.552 1.654.552l-.551.551c.55 0 .55.551.55.551l.552.551h.551c0-.551.551-.551.551-.551s0-.551.552-.551c0-.551 0-.551.55-.551.552 0 .552.551.552.551s.551.551 1.102.551l.552-.551s-.552 0-1.103-.551l-1.102-.552c-.551 0-.551-.551-.551-.551h-.552c-.55-.551-1.102-.551-1.102-.551v.551zm6.615.551c.552 0 2.205-.551 2.205-.551-.551-.551-1.102-.551-2.205-.551H95.91zm15.434 1.103v.551l.551-.551h1.102zm2.756 11.024v.551h.551v-.551zm2.205-1.654c.551.551 1.102.551 1.102.551h1.102c-.551 0-.551 0-.551-.551-.551 0-1.102-.551-1.102-1.102 0 0 1.102-1.654 1.653-1.654v-.551s1.103-.551 2.756-.551c.552 0 1.103-.551 1.103-.551h-2.756c-1.103 0-2.756.551-2.756 1.102l-.551.551c-.552 0-.552 0-.552.551v.552c0 .551-.551.551-.551.551 0 .551 0 .551.551 1.102zm-.552-8.819v.551l.552-.551zm1.103 0 .551.551c.551 0 .551-.551.551-.551zm1.653.551s.552 0 .552-.551h-.552zm13.78 3.307c0 .552.552.552 1.654 1.103l1.102.551v-.551c-.551-.551-.551-.551-1.102-.551l-.551-.552c0-.551-.551-.551-1.654-.551h-.551v.551zm3.859 2.205c.551.551 1.102.551 1.102.551 0-.551 0-.551-.551-.551 0-.551-.551-.551-.551-.551h-.551c0 .551 0 .551-.552.551zm6.063 4.41c-.551 0-.551 0-.551.551h.551zm8.268 2.756c.551.551 2.205 1.102 2.205 1.102 0-.551 0-.551-1.103-1.102-.551 0-1.102-.551-1.102-.551zm2.205 2.204h.551c-.551-.551-1.102-.551-1.102-.551zm.551-1.102.551.551v-.551zm12.126 27.009c-.551 0-.551 0-.551-.552-.551-.551-.551-1.102-1.102-.551 0 0 .551 0 .551.551v1.103s0 1.102.551 1.653v-1.102l.551.551c0-.551 0-.551.551-.551 0 0-.551-.551-.551-1.102m.551 4.96c0-.551 0-.551-.551-1.653 0-.551 0-1.103-.551-1.103 0 0 .551 0 .551.552h-.551l.551 1.102a5.5 5.5 0 0 1 .551 2.205l-.551.551v-.551c0 1.653 0 1.653-.551 1.653 0 0-.551.552-.551 1.654v.551c.551 0 .551 0 .551 1.103 0 .551.551.551.551.551v-1.103c-.551-.551-.551-.551-.551-1.102v-.551c.551 0 .551 0 .551.551h-.551l.551.551v-.551h.551l-.551-.551v-.551l.551.551s0-.551.552-.551v-.552l.551.552v-1.103c-.551-1.102-.551-1.653-1.103-2.205m.552 22.599s-.552-1.102-.552-1.653v-1.103l-.551-1.102c-.551 0-.551 0-.551.551 0 0 0 .551.551 1.103v1.102c0 .551.551.551.551.551v.551c0 .552 0 .552.552.552h.551s0-.552-.551-.552m1.102 1.654c.551.551.551.551.551 1.102 0-1.102 0-1.102-.551-1.102m-2.205 18.189c0 .552.551.552.551.552l.552-.552zm2.205-16.535.551.551v-.551zm0 .551c0-1.103 0-1.654-.551-1.654v.551c0 .552 0 .552.551.552v1.102h.551zm-1.102-3.307h-.552c0 .551.552.551.552 1.102zm0 2.756s-.552.551-.552 1.102v.551s.552 0 .552-.551zm-3.308-12.678c0 .551 0 1.102.552 1.654 0-.552 0-2.756-.552-2.756zm-2.204-27.009s.551 1.103.551 1.654c.551 0 .551 1.654 1.102 2.756l1.103 2.205h.551l-1.103-1.103v-2.204c-.551 0-1.653-2.205-1.653-2.205s0-.551-.551-1.103m.551 51.813c0-.551 0-.551-.551-.551 0 .551 0 1.102.551 1.102zm2.205 4.961v-.552c-.552 0-.552 0-.552-.551h-1.653l-.551-.551c-.552 0-.552 0-.552.551s0 1.103.552 1.103zm-4.961-4.961c0 1.102 1.102 3.307 1.653 3.307 0 0 0-.551.552-1.102v-2.205c-.552-.551-.552-1.103-.552-1.654v-.551c0-.551.001-.551-.551-1.102 0 0-.551-.552-.551-1.654-.551-.551-1.102-1.102-1.654-1.102h-.551s.551 1.102 1.103 1.653c.551 1.103.551 1.654.551 2.205zm6.614-.551c0-.552.551-.552.551-1.103 0 0 .552-.551.552-1.102v-.551c.551 0 .551-.552.551-.552v-3.307c0-.551 0-.551-.551-1.102v-.551c-.552 0-.552.551-.552 1.102v1.102l-.551.552c0 .551-.551 1.102-.551 1.102-.551.551-.551.551-.551 1.102h-.551s-.552 0-.552.552v3.858h1.103l.551.551v-.551c.551 0 .551-1.102.551-1.102m-.551 4.96v.552c.551 0 .551 0 .551-.552zm2.756-.551c-.551.551-.551 1.103-1.102 1.654l1.102-1.103c.551 0 .551-.551.551-.551zm1.654-8.268c-.552.551-1.103.551-1.103.551h-.551s-.551.552-.551 1.103v1.102c-.551 0-.551 1.654-.551 2.205 0 0 0 .551-.552 1.102v.552c.552 0 .552-.552.552-1.654.551-.551.551-1.102.551-1.102v1.653l.551-.551v.551c-.551 0-.551.551-.551.551.551 0 .551-1.102.551-1.102v-1.654c0-.551 0-.551.551-1.102v-.551l-.551.551v.551l-.551-.551v-.551c.551-.551.551-.551 1.102-.551s.551 0 1.103-.552zm0 9.922c-.552 0-.552 0-.552.551zm-.552-6.063v.551c.552 0 .552-.551.552-.551zm-.551-8.82h.551c0 1.103.552 1.103.552 1.103v-1.103l-.552-2.204v1.653c-.551 0-.551-.551-.551-.551zm1.654 8.82c.551 0 .551 0 .551-.552h-.551s-.551 0-.551.552zm0-2.205s.551-1.654.551-2.205v.551c0-.551 0-.551-.551-.551zm15.433-4.961c0 51.812-41.891 93.703-93.703 93.703S0 256.39 0 204.578s41.891-93.703 93.704-93.703 93.703 41.891 93.703 93.703m-34.174-30.316s0 .552.551.552v-.552zm-2.205-17.638c0 1.103-.551 2.756-.551 2.756l-.551.551h.551s0-.551.551-.551v-.551c.552 0 .552-.551.552-.551 0-.551 0-1.103-.552-1.654m-11.575 7.166v-.552c-.551 0-.551 0-.551.552zm-1.653-.552c-.552 0-.552 0-.552.552v.551c0-.551.552-.551.552-.551l.551-.552zm1.653 4.41c0 .551.551.551.551.551.552 0 .552 0 .552-.551zm-6.614-29.213v.551c.551 0 .551.551.551.551v-.551zm7.717-1.103.551.552v-.552zm1.102 24.804.551.551s0-.551-.551-.551m-82.129-33.623-.55.551h-.552c.551 0 .551 0 .551-.551zm-17.087 38.033c.551 0 1.103 0 1.103-.552l.55-.551h-.55l-.552.551c-.55 0-1.102 0-1.102.552zm-8.268-18.741h.551v-.551h.552c.55-.551 1.102-.551 1.102-.551l.551-.552h-.55v-.551l-1.103 1.103h-.552c.552 0 .552 0 1.103-.552zm2.756 13.229.551-.552v-.551s0 .551-.55.551zm1.103-4.961c-.552 0-.552.551-.552.551v1.654s0 .551-.55.551v.551c.55-.551.55-1.102 1.102-2.205zm-1.654 1.102v.552c.551-.552.551-1.103.551-1.103l.551-.551zm1.654-3.858.55-.551v-.551l-.55.551zm-2.205-4.41v.552s-.551.551-1.103.551c0 .551 0 .551-.55.551h1.653c0-.551.551-.551 1.102-1.102l.551-.552h.552c0-.551 0-.551-.552-.551l-1.102 1.103zm.551 2.756s-.551 0-.551.552h-.551zm4.96-3.858s.552 0 .552-.551zm-2.755 16.536c0 .551-1.654 3.307-1.654 3.858 0 0 .551-.551 1.103-1.653.55-1.103.55-1.103 1.653-1.654l.551-1.102v1.653l-.55.551h.55v1.103c0-.551.552-.551.552-1.103.55-.551.55-1.102.55-1.102h.552c.551 0 .551 0 .551-.551s0-.551-.55-.551l-.552.551v-.551c-.551 0-2.205 0-2.756.551m.551-1.654s0 .551 1.102.551h.552v-1.102c.55 0 .55-.551.55-.551h-.55c0-.551 0-.551-.552-.551l-1.653.551-1.103 1.102v.551c.552 0 1.103-.551 1.103-.551zm1.654-2.756c0-.551 0-.551-.552-.551v.551zm-1.103 7.717c-.55 0-.55 0-.55.551.55 0 2.204-.551 2.755-1.102v-.551zm17.639-12.126h.55v-.551zm-6.064 2.756.552-.551h-.552zm3.859-2.756.551-.551h-.551zm0-24.253c.551-.551 1.102-.551 1.102-1.102-.551 0-.551 0-.551.551h-.551zm-6.615 13.229h-.55c.55 0 .55 0 .55.551zm7.717-6.614s.551 0 .551-.552h.552-1.103l-.551.552zm1.654 4.96v-.551c-.551 0-.551 0-.551.551zm46.852 1.103c-.552 0-.552.551-.552.551h.552zm0-6.063h-.552c0 .551 0 .551.552.551zm10.472 79.372.552-.552v-1.102l.551-1.102-1.103-.552c-.551 0-.551 0-1.102.552v1.653l-.551 1.103zm-8.819-72.207h-.551c0 .551-.551.551-.551.551v.551c.551 0 1.102-.551 1.102-1.102m-83.782 9.37v.552l.551-.552zm72.758-6.614c0 .551-.55.551-.55.551h1.102c0-.551 0-.551-.552-.551m68.349 20.394c0-.551-.551-.551-.551-.551 0 .551 0 .551.551.551m-47.954 56.222s-.552.551-.552 1.654v1.653s0 .551.552 1.103zm2.756-23.15.551-.551h-.551zm-38.584 4.409.55.552h.552c0-.552-.551-.552-.551-.552zm14.33-6.614 1.103 1.103c.552 0 .552-.552.552-.552s-.552 0-.552-.551zm36.38-60.631.551.551s0-.551-.551-.551m-95.357 92.049s0 .551.55.551v-.551l-.55-.551zm-2.756-28.662v1.102c.55-.551.55-.551.55-1.102zm-7.166-2.756c-.551 0-.551 0-.551.551l.551.552zm16.536 64.49h.551v-.551zM87.09 126.86v-.552l-.55.552zm75.514 72.206v-.551l-.551-.551v.551zM80.475 136.23c.551 0 .551-.551.551-.551h-.551z"/></svg>