<svg xmlns="http://www.w3.org/2000/svg" width="512" height="512" fill="none"><g clip-path="url(#a)"><path fill="#2DE6EB" d="M109.955 464.219c-.889 0-1.263 1.168-.535 1.678C150.942 494.948 201.478 512 256 512s105.058-17.052 146.58-46.103c.728-.51.354-1.678-.535-1.678zM402.045 47.78c.889 0 1.263-1.168.535-1.677C361.058 17.052 310.522 0 256 0S150.943 17.052 109.42 46.103c-.728.51-.354 1.678.535 1.678zm62.175 62.175v292.091c0 .888 1.167 1.262 1.677.534C494.948 361.057 512 310.522 512 256s-17.052-105.058-46.103-146.58c-.51-.728-1.677-.354-1.677.535m-416.44 0c0-.889-1.168-1.263-1.677-.535C17.052 150.942 0 201.478 0 256s17.052 105.058 46.103 146.58c.51.728 1.678.354 1.678-.534z"/><path fill="#fff" d="M168.736 366v-43.233l78.165-62.913q13.451-10.883 20.176-18.188 6.875-7.305 9.266-12.97 2.392-5.814 2.392-11.777v-.298q0-6.857-3.288-11.927t-9.117-7.901q-5.829-2.982-13.6-2.982-8.669 0-15.095 3.429-6.427 3.28-10.014 9.243-3.587 5.814-4.184 13.716l-.15 1.938H165v-1.491q0-22.213 11.06-38.761 11.208-16.548 30.937-25.642Q226.874 147 252.879 147q26.603 0 46.181 8.199 19.728 8.051 30.489 22.81 10.91 14.61 10.91 34.587v.298q0 14.312-5.081 25.493-4.932 11.18-15.842 22.213-10.761 11.031-28.397 24.896l-65.909 52.328 26.304-43.532v44.277l-26.304-20.424H343V366z"/></g><defs><clipPath id="a"><path fill="#fff" d="M0 0h512v512H0z"/></clipPath></defs></svg>