<svg xmlns="http://www.w3.org/2000/svg" width="11075" height="2051" fill="none"><path fill="#fff" d="M6501.43 1373.42c-14.95 72.56-41.43 148.59-79.46 228.07-38 79.47-87.53 152.6-148.58 219.41-61.03 66.79-133.01 121.78-215.93 164.97s-176.78 64.78-281.6 64.78c-109.4 0-206.15-16.42-290.23-49.25-84.08-32.81-154.63-78.3-211.66-136.47-57-58.16-99.89-127.26-128.68-207.29-28.79-80.05-43.18-167.88-43.18-263.47 0-97.89 12.08-186.87 36.25-266.92 24.19-80.05 57.02-154.055 98.48-222.003q62.22-101.922 145.98-191.76c55.87-59.893 116.04-119.205 180.53-177.937q-53.55 55.294-92.43 115.777c-25.9 40.301-46.91 85.505-63.04 135.612-16.12 50.086-28.21 105.655-36.29 166.707-8.05 61.034-12.08 130.124-12.08 207.294 0 208.46 52.4 366.83 157.22 475.1 104.81 108.25 264.89 162.37 480.25 162.37 66.81 0 128.43-11.52 184.86-34.54 56.44-23.03 106.25-53.83 149.44-92.4 43.19-38.6 79.18-83.52 107.96-134.76q43.215-76.905 62.19-163.29m-326.48-756.668q-53.55 0-127.86-10.375c-49.52-6.918-102.49-15.553-158.93-25.908-56.43-10.376-114.89-21.89-175.37-34.543-60.46-12.675-119.78-24.189-177.94-34.544q-87.24-15.564-166.71-25.907c-52.97-6.918-100.19-10.376-141.65-10.376q-31.095 0-57.03 6.042c-17.27 4.028-34.55 10.65-51.82 19.865q-25.905 13.824-55.29 36.284-29.355 22.46-67.35 57.003c71.41-74.866 132.73-135.907 183.98-183.125 51.24-47.218 95.3-84.07 132.16-110.558q55.305-39.731 95.88-54.409c27.06-9.806 52.68-14.709 76.87-14.709q53.55 0 129.57 10.376c50.68 6.896 104.81 15.531 162.4 25.907 57.6 10.355 116.91 21.584 177.94 33.689 61.05 12.084 120.08 23.314 177.08 33.69 57.01 10.354 109.98 18.99 158.93 25.907s90.7 10.376 125.27 10.376c28.78 0 53.26-2.014 73.42-6.042 20.16-4.049 37.72-9.521 52.7-16.417 14.97-6.918 27.92-15.269 38.84-25.054q16.425-14.678 35.43-33.689-89.835 101.922-149.43 165.852t-106.26 99.36c-31.08 23.599-60.45 39.721-88.1 48.367-27.64 8.626-59.89 12.938-96.73 12.938m-248.8 792.948-302.31 272.96-3.45-791.237q25.905-37.992 115.74-122.642l181.39-167.592z"/><path fill="#fff" d="M6613.74 279.859c-1.14-14.973 4.62-27.068 17.27-36.284q19.005-13.823 57.03-10.344c25.33 2.299 48.64 6.907 69.94 13.824 21.32 6.896 43.5 14.952 66.53 24.168 17.27-27.648 35.99-55 56.15-82.056q30.24-40.586 58.74-75.983c19-23.62 37.14-44.93 54.41-63.931 17.27-19.022 31.66-35.44 43.18-49.253-33.38 46.058-67.93 93.276-103.63 141.653-35.7 48.378-71.99 99.919-108.85 154.623-36.86 54.705-74.3 112.868-112.3 174.489s-75.43 128.135-112.3 199.542c40.32-2.299 79.49-5.462 117.49-9.49 38-4.049 69.1-8.372 93.28-12.97v225.45q0 135.612 1.71 297.163 1.74 161.52 3.48 341.19c1.16 119.77 2.89 238.97 5.19 357.62q0 34.545 3.45 55.29c2.3 13.82 5.46 24.75 9.49 32.81 4.05 8.05 9.24 13.81 15.56 17.27 6.33 3.46 14.1 6.33 23.32 8.63H6466.9c5.75-3.46 11.23-10.36 16.41-20.72 5.19-10.37 8.35-35.71 9.49-76.01q3.45-157.215 5.19-317.88c1.16-107.11 2.03-208.17 2.59-303.17.57-95.03.86-180.26.86-255.7V834.42c-2.3-31.085-4.89-56.413-7.78-75.983-2.87-19.592-7.18-35.144-12.94-46.659-5.76-11.536-13.54-19.887-23.35-25.053-9.78-5.188-21.58-8.931-35.39-11.23 23.03 1.139 50.08 1.139 81.17 0 31.1-1.16 62.79-2.889 95.05-5.188 14.98-51.836 24.18-98.485 27.62-139.945q5.19-62.191 3.45-110.558c-1.14-32.245-3.72-59.882-7.75-82.911-4.03-23.05-6.62-42.061-7.78-57.034"/><path fill="#fff" d="M7703.87 1983.27c-5.76-9.21-10.08-21.59-12.97-37.13-2.89-15.55-5.2-35.41-6.93-59.6-1.71-24.19-2.86-54.14-3.45-89.84-.57-35.7-.85-78.89-.85-129.57 0-11.51.28-30.51.85-57 .59-26.51 1.46-56.17 2.59-88.99 1.16-32.83 2.61-68.25 4.34-106.25s3.16-74.56 4.3-109.67c1.16-35.14 2.02-67.39 2.59-96.77.59-29.38.89-53.28.89-71.71 0-17.27-.86-35.41-2.59-54.41s-4.33-37.72-7.79-56.15c-3.45-18.43-8.06-35.134-13.82-50.107s-12.66-27.637-20.72-37.991c-31.11-36.863-62.78-63.351-95.03-79.463-32.24-16.133-64.5-24.199-96.76-24.199q-22.425 0-55.26 25.939-32.835 25.908-70.83 58.711c0 65.65.28 136.19.85 211.63.57 75.43 1.14 153.75 1.71 234.97.59 81.19 1.46 164.41 2.6 249.65 1.16 85.22 2.88 169.87 5.18 253.95q0 34.545 3.45 55.29c2.32 13.82 5.49 24.75 9.52 32.81 4.03 8.05 9.21 13.81 15.53 17.27 6.35 3.46 14.13 6.33 23.35 8.63h-405.98c5.76-3.46 11.22-10.36 16.39-20.72 5.18-10.37 8.36-35.71 9.52-76.01 2.3-104.81 4.01-207.89 5.15-309.25 1.16-101.35 2.03-194.64 2.6-279.86.59-85.24.88-158.37.88-219.4V951.906c0-55.295-1.73-100.214-5.18-134.758-3.46-34.543-9.52-62.18-18.16-82.91q-12.945-31.096-35.4-43.18-22.455-12.115-57-15.563c35.7 0 74.57-.865 116.6-2.594q63.075-2.594 122.67-6.896c39.73-2.889 76-6.063 108.82-9.522 32.83-3.458 58.47-6.337 76.9-8.636v267.775c32.24-33.404 70.25-69.108 114.01-107.11q65.67-57.002 126.12-100.214c29.94-20.73 55.57-35.987 76.87-45.773 21.32-9.785 42.91-14.678 64.78-14.678q48.36 0 95.88 19.866c31.68 13.244 60.47 31.675 86.39 55.295 25.92 23.598 48.08 51.52 66.49 83.764 18.43 32.245 30.53 66.799 36.29 103.662 32.26-32.244 69.41-67.083 111.44-104.516 42.03-37.432 83.21-69.972 123.53-97.62 29.94-20.73 55.57-35.987 76.87-45.773 21.32-9.785 42.91-14.678 64.78-14.678 36.86 0 72.57 8.352 107.11 25.054q51.855 25.053 92.43 67.379 40.59 42.324 65.64 100.213c16.7 38.572 25.06 79.168 25.06 121.788 0 41.459-.87 94.439-2.6 158.929s-3.46 131.58-5.19 201.28c-1.7 69.68-3.42 136.76-5.15 201.25s-2.6 117.46-2.6 158.92c0 64.51 4.61 116.07 13.83 154.66 9.21 38.57 21.01 68.22 35.39 88.95 14.41 20.73 29.96 34.84 46.66 42.33 16.71 7.48 32.54 12.37 47.52 14.67H8389.7c-11.51-9.21-20.44-21.59-26.79-37.13-6.33-15.55-11.22-35.41-14.68-59.6-3.43-24.19-5.45-54.14-6.04-89.84-.57-35.7-.85-78.89-.85-129.57 0-11.51.28-30.51.85-57 .59-26.51 1.46-56.17 2.6-88.99 1.16-32.83 2.6-68.25 4.33-106.25s3.16-74.56 4.3-109.67c1.16-35.14 2.03-67.39 2.6-96.77.56-29.38.85-53.28.85-71.71 0-17.27-.87-35.41-2.59-54.41-1.71-19-4.3-37.72-7.75-56.15q-5.19-27.646-13.83-50.107c-5.76-14.973-12.67-27.637-20.75-37.991-31.08-36.863-62.75-63.351-94.99-79.463-32.25-16.133-64.5-24.199-96.77-24.199-13.81 0-31.38 8.066-52.7 24.199-21.3 16.112-44.04 34.533-68.23 55.263 3.45 16.133 5.18 32.266 5.18 48.399 0 41.459-.86 94.439-2.59 158.929s-3.46 131.58-5.19 201.28c-1.71 69.68-3.42 136.76-5.15 201.25s-2.6 117.46-2.6 158.92c0 64.51 3.17 116.07 9.49 154.66 6.35 38.57 13.55 68.22 21.61 88.95q12.075 31.095 23.31 42.33c7.49 7.48 12.96 12.37 16.42 14.67zm1112.54-570.09c0-49.54 2.01-91.29 6.04-125.27 4.05-33.97 10.38-63.62 19.01-88.95 8.65-25.35 20.16-48.67 34.54-69.97 14.41-21.32 31.4-44.65 51-69.97 13.81-17.28 27.05-33.4 39.73-48.37 12.67-14.973 26.2-30.231 40.58-45.774 14.41-15.563 30.82-32.845 49.26-51.846 18.43-19.002 40.31-41.176 65.63-66.525 25.35-25.328 51.56-50.37 78.61-75.129q40.59-37.137 79.47-65.639c25.91-19.022 50.39-34.575 73.42-46.659 23.02-12.104 42.61-18.157 58.74-18.157 28.78 0 60.45 5.473 94.99 16.418 34.57 10.945 69.12 25.348 103.66 43.211 34.57 17.841 67.97 38.571 100.22 62.19 32.24 23.599 61.61 48.072 88.1 73.421L9120.46 1433.9c2.32 43.76 6.65 81.19 12.97 112.3 6.33 31.08 16.12 58.15 29.36 81.2 13.24 23.03 30.51 44.05 51.81 63.05 21.33 19 48.11 38.29 80.35 57.89 51.84 32.24 101.08 52.69 147.73 61.33 46.65 8.63 89.54 12.94 128.68 12.94 17.3 0 32.85-.86 46.66-2.59 13.82-1.73 26.76-5.48 38.85-11.23 12.1-5.76 24.78-14.11 38.02-25.06 13.24-10.94 28.51-25.05 45.81-42.32-16.14 19.59-35.73 40.33-58.78 62.22q-34.545 32.805-72.57 63.9c-25.32 20.73-50.37 40.31-75.12 58.74-24.76 18.43-46.93 33.98-66.5 46.63-29.94 19.59-58.16 34.85-84.65 45.77-26.48 10.95-57.58 16.42-93.28 16.42-48.38 0-94.74-6.04-139.09-18.13-44.33-12.08-87.81-31.95-130.43-59.59-44.92-29.95-80.92-61.33-107.99-94.14-27.06-32.84-47.79-70.27-62.19-112.3-14.39-42.05-23.6-90.43-27.65-145.13-4.03-54.71-6.04-118.91-6.04-192.62m300.61-274.7v165c0 47.79 1.15 90.11 3.44 126.97l404.28-374.88c-51.84-50.68-108.57-94.152-170.19-130.425-61.6-36.294-122.93-54.441-183.98-54.441-9.21 0-16.42-.284-21.6-.854-5.17-.59-11.21.275-18.13 2.594-5.76 31.085-9.5 68.518-11.23 112.298-1.73 43.758-2.59 95.008-2.59 153.738"/><path fill="#fff" d="M10592.4 1793.25c3.4-18.43 6.9-39.16 10.4-62.19 3.4-23.05 5.1-47.24 5.1-72.56 0-53-7.2-102.53-21.6-148.58-14.4-46.08-37.1-86.39-68.2-120.94-31.1-34.54-71.1-61.6-120.1-81.17-48.9-19.59-107.9-29.39-177.1-29.39q-15.45 0-34.5 3.45t-29.4 6.9l209.1-217.67q34.5-8.64 120.9-8.64c57.6 0 109.7 9.8 156.3 29.39 46.7 19.57 86.4 46.06 119.2 79.46 32.9 33.41 58.2 72.57 76.1 117.49 17.8 44.9 26.7 92.12 26.7 141.65 0 48.36-5.7 88.38-17.2 120.05-11.5 31.68-31.1 60.19-58.8 85.54-27.6 24.19-58.7 50.67-93.3 79.46-34.5 28.79-69.1 58.15-103.6 88.1-32.3 26.49-64.5 53.84-96.8 82.05-32.2 28.22-62.1 54.42-89.8 78.61-15 12.68-27.6 22.76-38 30.24-10.4 7.49-20.4 13.25-30.3 17.28-9.7 4.02-20.4 6.61-31.9 7.75q-17.25 1.74-43.2 1.74-81.15 0-165-17.28c-55.8-11.51-110.53-27.34-164.09-47.48-53.55-20.16-103.94-43.2-151.18-69.12-47.22-25.91-88.68-53.27-124.38-82.05l233.23-241.87c28.79 31.11 67.07 60.48 114.82 88.13 47.8 27.63 101.1 52.1 159.9 73.42 58.7 21.3 121.8 38.29 189.2 50.96 67.3 12.66 135 18.98 202.9 18.98h14.7c5.2 0 11.8-.57 19.9-1.71m29.4-846.532q-65.7 0-145.2-16.417c-52.9-10.945-106.2-23.324-159.8-37.138-53.5-13.813-104.8-26.192-153.7-37.137-49-10.945-91.3-16.417-127-16.417-23 0-41.47 1.149-55.28 3.448s-25.33 5.757-34.54 10.375q-15.57 36.283-15.57 93.286c0 21.891 5.18 47.524 15.53 76.902q15.57 44.025 44.07 92.4c18.99 32.24 41.19 64.78 66.49 97.62 25.4 32.81 53 63.04 82.9 90.69l-233.16 241.87c-33.4-28.81-61.33-56.46-83.79-82.94-22.46-26.49-40.61-52.98-54.44-79.47-13.82-26.48-23.6-53.84-29.36-82.05-5.75-28.22-8.63-57.88-8.63-88.99 0-55.27 12.38-108.81 37.13-160.63 24.76-51.84 63.06-101.943 114.9-150.321 46.07-42.62 87.54-80.337 124.35-113.152 36.9-32.835 71.4-63.066 103.7-90.692 17.3-16.133 32.5-28.227 45.8-36.283q19.8-12.084 35.4-19.012c12.7-5.757 25-10.365 37.1-13.823q18.15-5.188 44.1-5.188c39.2 0 85.2 4.323 138.2 12.969q79.5 12.97 163.2 29.388c55.9 10.924 109.7 20.709 161.6 29.355 51.8 8.626 96.2 12.938 133 12.938q22.5 0 43.2-5.156c13.8-3.459 28.5-9.511 44-18.158q23.4-12.969 51.9-35.397c19-14.973 41.2-33.984 66.5-57.035q-112.35 114.038-186.6 183.156c-49.5 46.058-90.7 81.762-123.5 107.11-32.8 25.328-59.9 42.315-81.2 50.961-21.3 8.626-41.8 12.938-61.3 12.938M0 231h333.139l633.958 989.47c23.204 39.78 40.603 69.61 52.213 89.5 13.25 18.23 31.49 45.58 54.69 82.04 16.57 24.87 29 43.1 37.29 54.7s19.89 29.83 34.81 54.69V231h305.79v1752.71h-333.14L487.278 996.722 382.861 832.639q-24.86-39.778-39.778-59.667l-37.291-59.666V1983.71H0zm2326.44 1790c-132.6 0-248.61-27.35-348.06-82.04-97.79-56.35-173.2-135.91-226.23-238.67-53.04-104.41-79.56-225.41-79.56-362.97 0-130.94 26.52-246.95 79.56-348.056q82.035-154.139 226.23-238.667c97.79-56.352 208.83-84.528 333.14-84.528 127.62 0 239.5 25.69 335.63 77.07 96.12 51.38 171.54 124.306 226.23 218.778 54.7 94.473 82.04 203.033 82.04 325.683v4.97c0 14.92-.83 29.83-2.48 44.75 0 13.26-.83 27.35-2.49 42.26 0 11.61-.83 22.38-2.49 32.32 0 9.95-1.65 19.89-4.97 29.84l-1146.09 27.34v-149.16l852.73-101.93q-7.455-144.194-96.96-228.726c-59.66-58.009-138.39-87.014-236.18-87.014q-96.96 0-171.54 39.778c-48.06 24.861-87.01 61.322-116.85 109.392-28.17 46.4-45.58 102.76-52.2 169.05v221.27c4.97 67.95 21.54 127.62 49.72 179 29.83 51.38 70.44 90.32 121.82 116.84 53.03 26.52 114.36 39.78 183.97 39.78 76.24 0 140.05-15.74 191.43-47.24 51.38-33.14 87.01-78.72 106.9-136.73h305.79c-21.54 89.5-60.49 166.57-116.84 231.21-54.7 62.98-124.31 111.87-208.84 146.68-82.87 33.15-177.34 49.72-283.41 49.72m665.67-1317.639h308.28l179 616.559q12.435 32.31 17.4 57.18c4.98 16.57 10.78 35.63 17.41 57.18 11.6 44.75 19.88 78.72 24.86 101.93 6.63 21.54 16.57 54.69 29.83 99.44 33.15-106.07 64.64-211.32 94.47-315.73l183.97-616.559h313.25l181.49 616.559c14.92 48.06 29.83 97.78 44.75 149.16 11.6 38.12 19.89 66.3 24.86 84.53 6.63 18.23 14.92 45.58 24.86 82.04h2.49c29.83-104.41 58.84-209.66 87.01-315.73l181.49-616.559h308.28l-412.7 1280.349h-313.25l-186.46-619.04c-8.28-29.84-14.91-52.21-19.88-67.13-4.98-14.91-11.61-37.29-19.89-67.12-11.61-38.12-21.55-70.44-29.84-96.96-6.63-26.52-15.74-59.67-27.34-99.45-11.61 33.15-20.72 62.16-27.35 87.02s-14.92 53.03-24.86 84.53c-9.95 29.83-19.06 56.35-27.35 79.55-6.63 23.2-14.92 49.72-24.86 79.56l-186.46 619.04h-308.28z"/></svg>