<svg xmlns="http://www.w3.org/2000/svg" width="285" height="31" fill="none"><circle cx="2" cy="20" r="2" fill="#fff"/><circle cx="283" cy="20" r="2" fill="#fff"/><circle cx="12" cy="20" r="4" fill="#fff"/><circle cx="272" cy="20" r="4" fill="#fff"/><circle cx="25" cy="20" r="5" fill="#fff"/><circle cx="259" cy="20" r="5" fill="#fff"/><path fill="#fff" d="M39.845 13.669h7.163v1.463h-5.605v4.066h5.092v1.482h-5.092V26h-1.558zm9.013 0h3.914q2.109 0 3.192 1.026t1.083 2.66q0 1.33-.684 2.28-.665.95-1.938 1.292 1.749 2.204 2.983 5.073h-1.786q-1.197-2.736-2.83-4.883h-2.376V26h-1.558zm3.971 6.061q1.35 0 2.033-.608.684-.608.684-1.71 0-1.083-.684-1.691t-2.033-.608h-2.413v4.617zm12.092 6.441a6.33 6.33 0 0 1-3.173-.817 6.2 6.2 0 0 1-2.26-2.28q-.837-1.445-.837-3.23 0-1.767.817-3.23a6.16 6.16 0 0 1 2.261-2.299q1.425-.836 3.192-.836 1.73 0 3.154.836a6.1 6.1 0 0 1 2.28 2.299q.837 1.444.837 3.211-.001 1.786-.836 3.249a6.15 6.15 0 0 1-2.28 2.28q-1.425.817-3.154.817Zm-4.693-6.308q0 1.35.608 2.47a4.76 4.76 0 0 0 1.692 1.748q1.082.627 2.393.627t2.375-.646a4.6 4.6 0 0 0 1.691-1.748q.628-1.12.628-2.47t-.608-2.47a4.54 4.54 0 0 0-1.692-1.767q-1.064-.665-2.394-.665a4.5 4.5 0 0 0-2.413.665 4.55 4.55 0 0 0-1.672 1.786 5.1 5.1 0 0 0-.608 2.47m13.17-6.194h2.374a37 37 0 0 1 2.185 3.857q.988 1.995 1.957 4.579.951-2.565 1.938-4.56a39 39 0 0 1 2.204-3.876h2.356V26h-1.539V15.284a30.5 30.5 0 0 0-2.147 3.8q-.95 2.014-1.938 4.826H79.04q-.987-2.793-1.957-4.807a30 30 0 0 0-2.128-3.819V26h-1.558zM107.122 31q-3.022 0-5.605-1.439a10.85 10.85 0 0 1-4.028-3.924A10.33 10.33 0 0 1 96 20.231q0-2.966 1.489-5.407a10.85 10.85 0 0 1 4.028-3.924q2.583-1.44 5.605-1.439 2.846 0 5.254 1.265a10.7 10.7 0 0 1 3.985 3.488l-4.467 3.095a5.16 5.16 0 0 0-2.014-1.787q-1.182-.654-2.627-.654-2.233 0-3.809 1.57-1.533 1.569-1.533 3.793 0 2.223 1.533 3.836 1.576 1.57 3.809 1.57 1.489 0 2.715-.654a5.64 5.64 0 0 0 2.014-1.962l4.466 3.096a11.2 11.2 0 0 1-4.028 3.619q-2.409 1.263-5.298 1.264m9.619-27.512q0-1.44 1.007-2.442Q118.799.001 120.244 0q1.49 0 2.496 1.046 1.051 1.004 1.051 2.442 0 1.395-1.051 2.398-1.007.96-2.496.96-1.488 0-2.496-.96-1.007-1.002-1.007-2.398m.438 6.41h6.13v20.71h-6.13zm9.004-.001h4.466l.919 2.573q1.84-1.57 3.503-2.268 1.709-.697 3.897-.697 3.153 0 5.211 2.005 2.102 1.963 2.102 5.581v13.517h-6.131V18.574q0-1.57-.963-2.485-.964-.96-2.539-.96-2.234 0-4.335 1.7v13.779h-6.13zM158.808 31q-3.24 0-5.824-1.395-2.54-1.44-3.984-3.88-1.445-2.487-1.445-5.45 0-2.966 1.357-5.407a10.07 10.07 0 0 1 3.81-3.924q2.451-1.44 5.648-1.44 3.065 0 5.473 1.44a9.93 9.93 0 0 1 3.766 3.837q1.357 2.397 1.357 5.362 0 .916-.131 1.7h-15.544l.131.437q.481 1.744 1.927 2.747 1.488 1.002 3.546 1.002a8 8 0 0 0 2.89-.523 5.55 5.55 0 0 0 2.233-1.657l3.678 3.052q-1.445 1.92-3.809 3.009-2.32 1.09-5.079 1.09m4.51-12.906q-.175-1.656-1.62-2.703-1.401-1.09-3.284-1.09c-1.883 0-2.379.349-3.372 1.046q-1.445 1.047-1.664 2.747zm7.084-8.197h4.466l.919 2.573q1.84-1.614 3.416-2.268 1.576-.697 3.634-.697 1.795 0 3.284.785a6.2 6.2 0 0 1 2.496 2.18q1.795-1.527 3.546-2.224a9.8 9.8 0 0 1 3.766-.741q3.108 0 5.167 2.005 2.058 1.963 2.058 5.581v13.517h-6.131V18.574q0-1.57-.919-2.485-.876-.96-2.277-.96-1.97 0-3.984 1.7v13.779h-6.13V18.574q0-1.57-.92-2.485-.876-.96-2.277-.96-1.882 0-3.984 1.7v13.779h-6.13zm43.969 21.059q-2.67 0-4.992-1.438-2.277-1.483-3.634-3.925-1.314-2.484-1.313-5.362 0-2.878 1.313-5.32 1.357-2.484 3.634-3.924 2.321-1.482 4.992-1.482 4.423 0 7.006 3.444l1.094-3.052h4.467v20.71h-4.467l-1.094-3.051q-2.583 3.4-7.006 3.4m-4.028-10.638q0 2.136 1.488 3.706 1.533 1.526 3.766 1.526t3.722-1.483q1.489-1.482 1.489-3.706 0-2.355-1.489-3.88-1.489-1.57-3.722-1.57a5.15 5.15 0 0 0-2.715.742 5.43 5.43 0 0 0-1.883 2.005 5.5 5.5 0 0 0-.656 2.66M237.287 31q-6.875 0-9.371-4.796l4.904-2.529q.613 1.265 1.752 1.962 1.138.654 2.758.654 1.358 0 2.014-.392.701-.436.701-1.134 0-.871-.963-1.308-.92-.48-2.934-1.046-2.233-.567-3.722-1.178-1.445-.61-2.539-1.874-1.051-1.265-1.051-3.401 0-3.052 2.321-4.753 2.32-1.743 6.042-1.744 2.715 0 4.86 1.09a8.36 8.36 0 0 1 3.416 3.183l-4.817 2.529q-1.095-2.093-3.503-2.093-2.32 0-2.32 1.526 0 .829.875 1.265.92.436 2.89.915 2.233.567 3.722 1.221 1.489.61 2.583 1.962Q246 22.367 246 24.547q0 3.009-2.364 4.753-2.322 1.7-6.349 1.7"/></svg>