<svg xmlns="http://www.w3.org/2000/svg" width="476" height="110" fill="none"><path fill="#fff" d="M145.521 98.424a5.978 5.978 0 0 1-5.98-5.975V56.315c0-3.3-2.677-5.975-5.98-5.975h-2.581a5.978 5.978 0 0 1-5.98-5.976v-2.346c0-3.3 2.677-5.976 5.98-5.976h7.335c.677 0 1.226-.548 1.226-1.225 0-5.408 1.149-9.784 3.446-13.13 2.336-3.346 5.665-5.797 9.986-7.353 4.36-1.556 9.597-2.334 15.709-2.334 3.037 0 6.015.156 8.935.467.939.099 1.823.205 2.653.32 2.718.375 4.589 2.77 4.589 5.513v2.231c0 2.828-2.554 4.96-5.373 4.716a62.094 62.094 0 0 0-5.489-.234c-4.556 0-7.923.778-10.103 2.334-2.181 1.557-3.271 4.046-3.271 7.47 0 .677.549 1.225 1.227 1.225h16.737a5.978 5.978 0 0 1 5.98 5.976v2.346c0 3.3-2.678 5.976-5.98 5.976h-11.458a5.978 5.978 0 0 0-5.98 5.975V92.45c0 3.3-2.678 5.975-5.98 5.975h-9.648Zm48.623 0a5.978 5.978 0 0 1-5.98-5.975V42.018c0-3.3 2.677-5.976 5.98-5.976h9.706a5.978 5.978 0 0 1 5.98 5.976v50.43a5.977 5.977 0 0 1-5.98 5.976h-9.706Zm27.424 0a5.978 5.978 0 0 1-5.98-5.975V42.018c0-3.3 2.678-5.976 5.98-5.976h9.648a5.978 5.978 0 0 1 5.98 5.976v7.05a.221.221 0 0 0 .414.11c2.607-4.538 6.44-8.12 11.499-10.743 5.139-2.684 11.252-4.027 18.337-4.027 10.123 0 17.987 2.665 23.593 7.995 5.646 5.291 8.468 12.838 8.468 22.642V92.45c0 3.3-2.677 5.975-5.98 5.975h-9.647a5.978 5.978 0 0 1-5.98-5.975V69.363c0-6.458-1.616-11.32-4.847-14.588-3.193-3.307-7.884-4.96-14.075-4.96-4.399 0-8.234.836-11.504 2.509-3.27 1.672-5.801 4.026-7.592 7.06-1.791 3.035-2.686 6.653-2.686 10.855v22.21c0 3.3-2.678 5.975-5.98 5.975h-9.648ZM346.553 100c-9.032 0-16.858-1.323-23.476-3.968-6.619-2.684-11.758-6.478-15.417-11.38-3.621-4.901-5.431-10.698-5.431-17.39v-.116c0-6.653 1.81-12.43 5.431-17.332 3.659-4.901 8.798-8.695 15.417-11.379 6.618-2.684 14.444-4.027 23.476-4.027 7.826 0 14.775 1.07 20.849 3.21 6.073 2.1 10.998 5.096 14.775 8.987 3.776 3.89 6.131 8.52 7.066 13.888a.544.544 0 0 1-.536.642h-19.872a.72.72 0 0 1-.674-.467c-1.246-3.695-3.718-6.516-7.417-8.461-3.698-1.984-8.215-2.976-13.548-2.976-4.789 0-8.896.72-12.322 2.159-3.427 1.44-6.074 3.501-7.943 6.186-1.83 2.684-2.744 5.874-2.744 9.57v.117c0 3.734.914 6.944 2.744 9.628 1.869 2.685 4.516 4.746 7.943 6.186 3.426 1.44 7.533 2.16 12.322 2.16 5.372 0 9.889-.974 13.548-2.919 3.699-1.945 6.171-4.804 7.417-8.578a.72.72 0 0 1 .674-.467h19.814c.372 0 .655.334.594.7-.935 5.37-3.309 9.999-7.125 13.89-3.776 3.89-8.701 6.885-14.775 8.986-6.034 2.1-12.964 3.151-20.79 3.151Zm51.508-1.576a5.978 5.978 0 0 1-5.98-5.975V20.193c0-3.3 2.677-5.976 5.98-5.976h9.647a5.978 5.978 0 0 1 5.981 5.976v28.875a.22.22 0 0 0 .413.108c2.57-4.537 6.383-8.117 11.441-10.741 5.14-2.684 11.252-4.027 18.338-4.027 6.774 0 12.536 1.206 17.286 3.618 4.788 2.374 8.448 5.836 10.979 10.388C474.715 52.965 476 58.509 476 65.045V92.45c0 3.3-2.677 5.975-5.98 5.975h-9.706a5.978 5.978 0 0 1-5.98-5.975V69.363c0-6.458-1.616-11.32-4.847-14.588-3.193-3.307-7.884-4.96-14.074-4.96-4.4 0-8.234.836-11.505 2.509-3.27 1.672-5.801 4.026-7.592 7.06-1.752 3.035-2.627 6.653-2.627 10.855v22.21c0 3.3-2.678 5.975-5.981 5.975h-9.647Z"/><path fill="#9F94FF" d="M.067 3.784A3.146 3.146 0 0 1 3.387.01l114.175 8.727c2.347.18 3.673 2.778 2.44 4.784l-21.91 35.657a3.146 3.146 0 0 1-3.079 1.473l-38.706-4.946c-3.403-.435-4.946 4.115-1.981 5.84L78.51 65.612a3.146 3.146 0 0 1 1.308 3.964L67.462 98.261a3.147 3.147 0 0 1-2.2 1.825L25.149 109.1a3.147 3.147 0 0 1-3.77-2.432L.067 3.784Z"/></svg>