<svg xmlns="http://www.w3.org/2000/svg" width="184" height="41" fill="none"><circle cx="2" cy="30" r="2" fill="#fff"/><circle cx="11" cy="30" r="3" fill="#fff"/><circle cx="23" cy="30" r="5" fill="#fff"/><path fill="#fff" d="M84.38.318h6.786v1.386h-5.31v3.852h4.824V6.96h-4.824V12H84.38zm8.538 0h3.708q1.998 0 3.024.972t1.026 2.52q0 1.26-.648 2.16-.63.9-1.836 1.224 1.657 2.088 2.826 4.806h-1.692q-1.133-2.592-2.681-4.626h-2.25V12h-1.477zM96.68 6.06q1.278 0 1.926-.576.649-.576.648-1.62 0-1.026-.648-1.602-.647-.576-1.925-.576h-2.287V6.06zm11.456 6.102a6 6 0 0 1-3.006-.774 5.87 5.87 0 0 1-2.142-2.16q-.792-1.368-.792-3.06 0-1.674.774-3.06A5.83 5.83 0 0 1 105.112.93q1.35-.792 3.024-.792 1.638 0 2.988.792a5.8 5.8 0 0 1 2.16 2.178q.792 1.368.792 3.042 0 1.692-.792 3.078a5.83 5.83 0 0 1-2.16 2.16q-1.35.774-2.988.774m-4.446-5.976q0 1.278.576 2.34.594 1.044 1.602 1.656 1.026.594 2.268.594a4.25 4.25 0 0 0 2.25-.612 4.33 4.33 0 0 0 1.602-1.656 4.7 4.7 0 0 0 .594-2.34q0-1.278-.576-2.34a4.3 4.3 0 0 0-1.602-1.674q-1.008-.63-2.268-.63t-2.286.63q-1.008.612-1.584 1.692a4.8 4.8 0 0 0-.576 2.34M116.166.318h2.25a35 35 0 0 1 2.07 3.654 47 47 0 0 1 1.854 4.338q.9-2.43 1.836-4.32a37 37 0 0 1 2.088-3.672h2.232V12h-1.458V1.848a29 29 0 0 0-2.034 3.6q-.9 1.908-1.836 4.572h-1.656q-.936-2.646-1.854-4.554a28.4 28.4 0 0 0-2.016-3.618V12h-1.476zM48.825 41a10.8 10.8 0 0 1-5.455-1.439 10.7 10.7 0 0 1-3.921-3.924A10.55 10.55 0 0 1 38 30.231q0-2.966 1.449-5.407a10.7 10.7 0 0 1 3.92-3.924 10.8 10.8 0 0 1 5.456-1.439q2.77 0 5.114 1.265 2.345 1.22 3.879 3.488l-4.347 3.095a5.07 5.07 0 0 0-1.96-1.787q-1.151-.654-2.558-.654-2.174 0-3.708 1.57-1.491 1.569-1.491 3.793 0 2.223 1.491 3.837 1.535 1.57 3.708 1.57 1.45 0 2.642-.655 1.194-.698 1.96-1.962l4.348 3.096a11 11 0 0 1-3.921 3.619Q51.638 41 48.825 41m9.363-27.512q0-1.44.98-2.442 1.023-1.045 2.43-1.046 1.449 0 2.429 1.046a3.3 3.3 0 0 1 1.023 2.442q0 1.395-1.023 2.398-.98.96-2.43.96-1.448 0-2.429-.96a3.3 3.3 0 0 1-.98-2.398m.426 6.41h5.967v20.71h-5.967zm8.764-.001h4.347l.895 2.573q1.79-1.57 3.41-2.267 1.661-.698 3.792-.698 3.07 0 5.072 2.006 2.046 1.962 2.046 5.58v13.517h-5.967V28.574q0-1.57-.938-2.485-.937-.96-2.471-.96-2.174 0-4.22 1.7v13.779h-5.966v-20.71ZM99.133 41q-3.154 0-5.668-1.395a10.47 10.47 0 0 1-3.879-3.88q-1.406-2.486-1.406-5.45 0-2.966 1.321-5.407a9.95 9.95 0 0 1 3.708-3.924q2.387-1.44 5.498-1.44 2.983 0 5.327 1.44 2.344 1.395 3.665 3.837 1.321 2.397 1.321 5.363 0 .915-.127 1.7h-15.13l.128.436q.468 1.744 1.875 2.747 1.45 1.002 3.452 1.002 1.492 0 2.813-.523a5.4 5.4 0 0 0 2.174-1.657l3.579 3.053q-1.406 1.918-3.707 3.008Q101.818 41 99.133 41m4.39-12.906q-.171-1.656-1.577-2.703-1.364-1.09-3.197-1.09t-3.281 1.046q-1.407 1.047-1.62 2.747zm6.894-8.197h4.348l.895 2.573q1.79-1.613 3.324-2.267 1.534-.698 3.537-.698 1.748 0 3.197.785a6.1 6.1 0 0 1 2.429 2.18q1.747-1.527 3.452-2.224a9.3 9.3 0 0 1 3.665-.741q3.026 0 5.029 2.006 2.003 1.962 2.003 5.58v13.517h-5.966V28.574q0-1.57-.895-2.485-.853-.96-2.217-.96-1.917 0-3.878 1.7v13.779h-5.966V28.574q0-1.57-.895-2.485-.853-.96-2.217-.96-1.832 0-3.878 1.7v13.779h-5.967v-20.71Zm42.797 21.059q-2.6 0-4.858-1.438-2.216-1.483-3.537-3.925-1.28-2.484-1.279-5.362 0-2.878 1.279-5.32 1.32-2.484 3.537-3.924 2.259-1.482 4.858-1.482 4.305 0 6.819 3.444l1.066-3.052h4.347v20.71h-4.347l-1.066-3.051q-2.514 3.4-6.819 3.4m-3.92-10.638q0 2.137 1.449 3.706 1.491 1.526 3.665 1.526t3.622-1.482 1.449-3.706q0-2.355-1.449-3.881-1.449-1.57-3.622-1.57-1.449 0-2.643.742a5.36 5.36 0 0 0-1.832 2.005 5.65 5.65 0 0 0-.639 2.66M175.519 41q-6.692 0-9.12-4.796l4.773-2.529q.597 1.264 1.705 1.962 1.107.654 2.685.654 1.32 0 1.96-.392.682-.436.682-1.134 0-.871-.938-1.308-.894-.48-2.855-1.046-2.174-.567-3.623-1.178-1.405-.61-2.472-1.874-1.022-1.265-1.022-3.401 0-3.052 2.258-4.753 2.26-1.743 5.882-1.744 2.642 0 4.73 1.09 2.09 1.09 3.325 3.183l-4.688 2.529q-1.066-2.093-3.41-2.093-2.259 0-2.259 1.526 0 .828.853 1.265.894.436 2.812.915 2.175.567 3.623 1.221 1.449.61 2.515 1.962Q184 32.367 184 34.547q0 3.009-2.301 4.753-2.259 1.7-6.18 1.7"/></svg>