<svg xmlns="http://www.w3.org/2000/svg" width="571" height="519" fill="none"><path fill="#01001C" fill-rule="evenodd" d="M383.855.153c25.303-2.271 45.316 21.047 39.233 45.712l-40.673 164.897c-1.888 7.652 5.406 14.378 12.881 11.878l126.55-42.325.836-.271c35.342-11.013 63.35 31.411 38.828 59.629l-231.374 266.25c-25.479 29.32-73.153 4.583-63.851-33.13l37.124-150.511c1.887-7.652-5.407-14.378-12.881-11.879l-163.993 54.85c-19.845 6.638-41.242-4.49-47.203-24.549L1.552 78.984c-6.66-22.41 8.874-45.301 32.158-47.392zM117.801 341.781l.107-.028zM25.263 66.006l.006-.027-.007.035z" clip-rule="evenodd"/></svg>