<svg xmlns="http://www.w3.org/2000/svg" width="512" height="512" fill="none"><g clip-path="url(#a)"><path fill="#E1143C" d="M109.955 464.219c-.889 0-1.263 1.168-.535 1.678C150.942 494.948 201.478 512 256 512s105.058-17.052 146.58-46.103c.728-.51.354-1.678-.535-1.678zM402.045 47.78c.889 0 1.263-1.168.535-1.677C361.058 17.052 310.522 0 256 0S150.943 17.052 109.42 46.103c-.728.51-.354 1.678.535 1.678zm62.175 62.175v292.091c0 .888 1.167 1.262 1.677.534C494.948 361.057 512 310.522 512 256s-17.052-105.058-46.103-146.58c-.51-.728-1.677-.354-1.677.535m-416.44 0c0-.889-1.168-1.263-1.677-.535C17.052 150.942 0 201.478 0 256s17.052 105.058 46.103 146.58c.51.728 1.678.354 1.678-.534z"/><path fill="#fff" d="M343 312.998V366H169v-53.002h59.16V196.509h-46.163V147h105.657v165.998z"/></g><defs><clipPath id="a"><path fill="#fff" d="M0 0h512v512H0z"/></clipPath></defs></svg>